G04 #@! TF.GenerationSoftware,KiCad,Pcbnew,6.0.4-6f826c9f35~116~ubuntu20.04.1*
G04 #@! TF.CreationDate,2022-05-05T17:55:16-04:00*
G04 #@! TF.ProjectId,arrm,6172726d-2e6b-4696-9361-645f70636258,rev?*
G04 #@! TF.SameCoordinates,Original*
G04 #@! TF.FileFunction,Soldermask,Top*
G04 #@! TF.FilePolarity,Negative*
%FSLAX46Y46*%
G04 Gerber Fmt 4.6, Leading zero omitted, Abs format (unit mm)*
G04 Created by KiCad (PCBNEW 6.0.4-6f826c9f35~116~ubuntu20.04.1) date 2022-05-05 17:55:16*
%MOMM*%
%LPD*%
G01*
G04 APERTURE LIST*
G04 Aperture macros list*
%AMRoundRect*
0 Rectangle with rounded corners*
0 $1 Rounding radius*
0 $2 $3 $4 $5 $6 $7 $8 $9 X,Y pos of 4 corners*
0 Add a 4 corners polygon primitive as box body*
4,1,4,$2,$3,$4,$5,$6,$7,$8,$9,$2,$3,0*
0 Add four circle primitives for the rounded corners*
1,1,$1+$1,$2,$3*
1,1,$1+$1,$4,$5*
1,1,$1+$1,$6,$7*
1,1,$1+$1,$8,$9*
0 Add four rect primitives between the rounded corners*
20,1,$1+$1,$2,$3,$4,$5,0*
20,1,$1+$1,$4,$5,$6,$7,0*
20,1,$1+$1,$6,$7,$8,$9,0*
20,1,$1+$1,$8,$9,$2,$3,0*%
%AMRotRect*
0 Rectangle, with rotation*
0 The origin of the aperture is its center*
0 $1 length*
0 $2 width*
0 $3 Rotation angle, in degrees counterclockwise*
0 Add horizontal line*
21,1,$1,$2,0,0,$3*%
G04 Aperture macros list end*
%ADD10O,2.500000X4.500001*%
%ADD11O,4.500001X2.500001*%
%ADD12RotRect,4.500001X2.500001X315.000000*%
%ADD13O,4.500000X2.500000*%
%ADD14O,2.500000X4.500000*%
%ADD15RoundRect,0.250000X0.850000X-0.620000X0.850000X0.620000X-0.850000X0.620000X-0.850000X-0.620000X0*%
%ADD16O,2.200000X1.740000*%
%ADD17C,1.600000*%
%ADD18O,1.600000X1.600000*%
%ADD19R,2.540000X2.540000*%
%ADD20C,2.540000*%
%ADD21R,1.600000X1.600000*%
%ADD22R,1.500000X1.500000*%
%ADD23C,1.500000*%
%ADD24C,1.440000*%
%ADD25RoundRect,0.250000X-0.850000X0.620000X-0.850000X-0.620000X0.850000X-0.620000X0.850000X0.620000X0*%
%ADD26R,2.400000X1.600000*%
%ADD27O,2.400000X1.600000*%
%ADD28R,1.727200X1.727200*%
%ADD29O,1.727200X1.727200*%
%ADD30R,2.200000X2.200000*%
%ADD31O,2.200000X2.200000*%
G04 APERTURE END LIST*
D10*
G04 #@! TO.C,J11*
X118900000Y-175500000D03*
D11*
X115000000Y-181400000D03*
D12*
X107760000Y-179740000D03*
D13*
X112000000Y-168600000D03*
D14*
X106100000Y-172500000D03*
G04 #@! TD*
D10*
G04 #@! TO.C,J8*
X118900000Y-150500000D03*
D11*
X115000000Y-156400000D03*
D12*
X107760000Y-154740000D03*
D13*
X112000000Y-143600000D03*
D14*
X106100000Y-147500000D03*
G04 #@! TD*
D10*
G04 #@! TO.C,J10*
X93900000Y-175500000D03*
D11*
X90000000Y-181400000D03*
D12*
X82760000Y-179740000D03*
D13*
X87000000Y-168600000D03*
D14*
X81100000Y-172500000D03*
G04 #@! TD*
D10*
G04 #@! TO.C,J9*
X93900000Y-150500000D03*
D11*
X90000000Y-156400000D03*
D12*
X82760000Y-154740000D03*
D13*
X87000000Y-143600000D03*
D14*
X81100000Y-147500000D03*
G04 #@! TD*
D15*
G04 #@! TO.C,J2*
X80950000Y-117780000D03*
D16*
X80950000Y-115240000D03*
G04 #@! TD*
D17*
G04 #@! TO.C,D3*
X97460000Y-93650000D03*
D18*
X87300000Y-93650000D03*
G04 #@! TD*
D17*
G04 #@! TO.C,C7*
X112700000Y-113970000D03*
X112700000Y-118970000D03*
G04 #@! TD*
D19*
G04 #@! TO.C,TR1*
X104749600Y-115490000D03*
D20*
X99999800Y-115490000D03*
X95250000Y-115490000D03*
X95224600Y-104822000D03*
X99999800Y-104822000D03*
X99999800Y-104822000D03*
X104749600Y-104822000D03*
G04 #@! TD*
D19*
G04 #@! TO.C,TR2*
X95250200Y-76632000D03*
D20*
X100000000Y-76632000D03*
X104749800Y-76632000D03*
X104775200Y-87300000D03*
X100000000Y-87300000D03*
X100000000Y-87300000D03*
X95250200Y-87300000D03*
G04 #@! TD*
D17*
G04 #@! TO.C,R6*
X120320000Y-122860000D03*
D18*
X110160000Y-122860000D03*
G04 #@! TD*
D17*
G04 #@! TO.C,D6*
X102540000Y-98730000D03*
D18*
X112700000Y-98730000D03*
G04 #@! TD*
D17*
G04 #@! TO.C,C1*
X108890000Y-135560000D03*
X112390000Y-135560000D03*
G04 #@! TD*
D21*
G04 #@! TO.C,C3*
X112700000Y-37770000D03*
D17*
X115200000Y-37770000D03*
G04 #@! TD*
G04 #@! TO.C,R13*
X110160000Y-49200000D03*
D18*
X120320000Y-49200000D03*
G04 #@! TD*
D17*
G04 #@! TO.C,R1*
X105080000Y-138100000D03*
D18*
X94920000Y-138100000D03*
G04 #@! TD*
D22*
G04 #@! TO.C,TP3*
X78410000Y-36500000D03*
G04 #@! TD*
D17*
G04 #@! TO.C,R8*
X86030000Y-84760000D03*
D18*
X86030000Y-74600000D03*
G04 #@! TD*
D17*
G04 #@! TO.C,R11*
X94920000Y-65710000D03*
D18*
X105080000Y-65710000D03*
G04 #@! TD*
D17*
G04 #@! TO.C,R12*
X89880000Y-55550000D03*
D18*
X79720000Y-55550000D03*
G04 #@! TD*
D17*
G04 #@! TO.C,C9*
X88570000Y-50470000D03*
X91070000Y-50470000D03*
G04 #@! TD*
D23*
G04 #@! TO.C,TP2*
X78410000Y-28880000D03*
G04 #@! TD*
D24*
G04 #@! TO.C,RV5*
X88620000Y-61900000D03*
X86080000Y-61900000D03*
X83540000Y-61900000D03*
G04 #@! TD*
D17*
G04 #@! TO.C,R4*
X89840000Y-127940000D03*
D18*
X79680000Y-127940000D03*
G04 #@! TD*
D21*
G04 #@! TO.C,C4*
X84800000Y-37770000D03*
D17*
X87300000Y-37770000D03*
G04 #@! TD*
D25*
G04 #@! TO.C,J3*
X119050000Y-103810000D03*
D16*
X119050000Y-106350000D03*
G04 #@! TD*
D17*
G04 #@! TO.C,D4*
X87300000Y-98730000D03*
D18*
X97460000Y-98730000D03*
G04 #@! TD*
D26*
G04 #@! TO.C,U1*
X96190000Y-131750000D03*
D27*
X96190000Y-129210000D03*
X96190000Y-126670000D03*
X96190000Y-124130000D03*
X103810000Y-124130000D03*
X103810000Y-126670000D03*
X103810000Y-129210000D03*
X103810000Y-131750000D03*
G04 #@! TD*
D17*
G04 #@! TO.C,C5*
X107620000Y-129210000D03*
X107620000Y-126710000D03*
G04 #@! TD*
G04 #@! TO.C,C2*
X87300000Y-113970000D03*
X87300000Y-118970000D03*
G04 #@! TD*
G04 #@! TO.C,C10*
X115240000Y-60630000D03*
X120240000Y-60630000D03*
G04 #@! TD*
D24*
G04 #@! TO.C,RV4*
X88610000Y-68250000D03*
X86070000Y-68250000D03*
X83530000Y-68250000D03*
G04 #@! TD*
G04 #@! TO.C,RV6*
X111430000Y-55550000D03*
X113970000Y-55550000D03*
X116510000Y-55550000D03*
G04 #@! TD*
D17*
G04 #@! TO.C,R14*
X110160000Y-44120000D03*
D18*
X120320000Y-44120000D03*
G04 #@! TD*
D26*
G04 #@! TO.C,U2*
X96200000Y-60620000D03*
D27*
X96200000Y-58080000D03*
X96200000Y-55540000D03*
X96200000Y-53000000D03*
X103820000Y-53000000D03*
X103820000Y-55540000D03*
X103820000Y-58080000D03*
X103820000Y-60620000D03*
G04 #@! TD*
D17*
G04 #@! TO.C,R3*
X89840000Y-138100000D03*
D18*
X79680000Y-138100000D03*
G04 #@! TD*
D17*
G04 #@! TO.C,R10*
X80950000Y-84760000D03*
D18*
X80950000Y-74600000D03*
G04 #@! TD*
D25*
G04 #@! TO.C,J1*
X119050000Y-112700000D03*
D16*
X119050000Y-115240000D03*
X119050000Y-117780000D03*
G04 #@! TD*
D17*
G04 #@! TO.C,R2*
X79680000Y-133020000D03*
D18*
X89840000Y-133020000D03*
G04 #@! TD*
D17*
G04 #@! TO.C,C6*
X92380000Y-126670000D03*
X92380000Y-124170000D03*
G04 #@! TD*
G04 #@! TO.C,R5*
X89840000Y-122860000D03*
D18*
X79680000Y-122860000D03*
G04 #@! TD*
D17*
G04 #@! TO.C,R7*
X110160000Y-127940000D03*
D18*
X120320000Y-127940000D03*
G04 #@! TD*
D17*
G04 #@! TO.C,R9*
X120320000Y-65710000D03*
D18*
X110160000Y-65710000D03*
G04 #@! TD*
D17*
G04 #@! TO.C,D5*
X112700000Y-93650000D03*
D18*
X102540000Y-93650000D03*
G04 #@! TD*
D28*
G04 #@! TO.C,J7*
X98730000Y-41580000D03*
D29*
X101270000Y-41580000D03*
X98730000Y-39040000D03*
X101270000Y-39040000D03*
X98730000Y-36500000D03*
X101270000Y-36500000D03*
X98730000Y-33960000D03*
X101270000Y-33960000D03*
X98730000Y-31420000D03*
X101270000Y-31420000D03*
G04 #@! TD*
D17*
G04 #@! TO.C,C11*
X84720000Y-50470000D03*
X79720000Y-50470000D03*
G04 #@! TD*
D23*
G04 #@! TO.C,TP1*
X78410000Y-44120000D03*
G04 #@! TD*
D30*
G04 #@! TO.C,D1*
X107620000Y-39040000D03*
D31*
X107620000Y-28880000D03*
G04 #@! TD*
D17*
G04 #@! TO.C,C8*
X108890000Y-60630000D03*
X111390000Y-60630000D03*
G04 #@! TD*
D30*
G04 #@! TO.C,D2*
X92380000Y-28880000D03*
D31*
X92380000Y-39040000D03*
G04 #@! TD*
M02*
