M48
; DRILL file {KiCad 6.0.4-6f826c9f35~116~ubuntu20.04.1} date Thu May  5 18:39:35 2022
; FORMAT={-:-/ absolute / metric / decimal}
; #@! TF.CreationDate,2022-05-05T18:39:35-04:00
; #@! TF.GenerationSoftware,Kicad,Pcbnew,6.0.4-6f826c9f35~116~ubuntu20.04.1
; #@! TF.FileFunction,MixedPlating,1,2
FMAT,2
METRIC
; #@! TA.AperFunction,Plated,PTH,ComponentDrill
T1C0.700
; #@! TA.AperFunction,Plated,PTH,ComponentDrill
T2C0.800
; #@! TA.AperFunction,Plated,PTH,ComponentDrill
T3C1.000
; #@! TA.AperFunction,Plated,PTH,ComponentDrill
T4C1.016
; #@! TA.AperFunction,Plated,PTH,ComponentDrill
T5C1.100
; #@! TA.AperFunction,Plated,PTH,ComponentDrill
T6C1.200
; #@! TA.AperFunction,Plated,PTH,ComponentDrill
T7C1.524
%
G90
G05
T1
X78.41Y-28.88
X78.41Y-36.5
X78.41Y-44.12
T2
X79.68Y-122.86
X79.68Y-127.94
X79.68Y-133.02
X79.68Y-138.1
X79.72Y-50.47
X79.72Y-55.55
X80.95Y-74.6
X80.95Y-84.76
X83.53Y-68.25
X83.54Y-61.9
X84.72Y-50.47
X84.8Y-37.77
X86.03Y-74.6
X86.03Y-84.76
X86.07Y-68.25
X86.08Y-61.9
X87.3Y-37.77
X87.3Y-93.65
X87.3Y-98.73
X87.3Y-113.97
X87.3Y-118.97
X88.57Y-50.47
X88.61Y-68.25
X88.62Y-61.9
X89.84Y-122.86
X89.84Y-127.94
X89.84Y-133.02
X89.84Y-138.1
X89.88Y-55.55
X91.07Y-50.47
X92.38Y-124.17
X92.38Y-126.67
X94.92Y-65.71
X94.92Y-138.1
X96.19Y-124.13
X96.19Y-126.67
X96.19Y-129.21
X96.19Y-131.75
X96.2Y-53.0
X96.2Y-55.54
X96.2Y-58.08
X96.2Y-60.62
X97.46Y-93.65
X97.46Y-98.73
X102.54Y-93.65
X102.54Y-98.73
X103.81Y-124.13
X103.81Y-126.67
X103.81Y-129.21
X103.81Y-131.75
X103.82Y-53.0
X103.82Y-55.54
X103.82Y-58.08
X103.82Y-60.62
X105.08Y-65.71
X105.08Y-138.1
X107.62Y-126.71
X107.62Y-129.21
X108.89Y-60.63
X108.89Y-135.56
X110.16Y-44.12
X110.16Y-49.2
X110.16Y-65.71
X110.16Y-122.86
X110.16Y-127.94
X111.39Y-60.63
X111.43Y-55.55
X112.39Y-135.56
X112.7Y-37.77
X112.7Y-93.65
X112.7Y-98.73
X112.7Y-113.97
X112.7Y-118.97
X113.97Y-55.55
X115.2Y-37.77
X115.24Y-60.63
X116.51Y-55.55
X120.24Y-60.63
X120.32Y-44.12
X120.32Y-49.2
X120.32Y-65.71
X120.32Y-122.86
X120.32Y-127.94
T4
X98.73Y-31.42
X98.73Y-33.96
X98.73Y-36.5
X98.73Y-39.04
X98.73Y-41.58
X101.27Y-31.42
X101.27Y-33.96
X101.27Y-36.5
X101.27Y-39.04
X101.27Y-41.58
T5
X92.38Y-28.88
X92.38Y-39.04
X107.62Y-28.88
X107.62Y-39.04
T6
X80.95Y-115.24
X80.95Y-117.78
X119.05Y-103.81
X119.05Y-106.35
X119.05Y-112.7
X119.05Y-115.24
X119.05Y-117.78
T7
X95.225Y-104.822
X95.25Y-115.49
X95.25Y-76.632
X95.25Y-87.3
X100.0Y-104.822
X100.0Y-104.822
X100.0Y-115.49
X100.0Y-76.632
X100.0Y-87.3
X100.0Y-87.3
X104.75Y-104.822
X104.75Y-115.49
X104.75Y-76.632
X104.775Y-87.3
T3
X81.1Y-146.65G85X81.1Y-148.35
G05
X81.1Y-171.65G85X81.1Y-173.35
G05
X82.159Y-154.139G85X83.361Y-155.341
G05
X82.159Y-179.139G85X83.361Y-180.341
G05
X87.85Y-143.6G85X86.15Y-143.6
G05
X87.85Y-168.6G85X86.15Y-168.6
G05
X90.85Y-156.4G85X89.15Y-156.4
G05
X90.85Y-181.4G85X89.15Y-181.4
G05
X93.9Y-149.65G85X93.9Y-151.35
G05
X93.9Y-174.65G85X93.9Y-176.35
G05
X106.1Y-146.65G85X106.1Y-148.35
G05
X106.1Y-171.65G85X106.1Y-173.35
G05
X107.159Y-154.139G85X108.361Y-155.341
G05
X107.159Y-179.139G85X108.361Y-180.341
G05
X112.85Y-143.6G85X111.15Y-143.6
G05
X112.85Y-168.6G85X111.15Y-168.6
G05
X115.85Y-156.4G85X114.15Y-156.4
G05
X115.85Y-181.4G85X114.15Y-181.4
G05
X118.9Y-149.65G85X118.9Y-151.35
G05
X118.9Y-174.65G85X118.9Y-176.35
G05
T0
M30
