G04 #@! TF.GenerationSoftware,KiCad,Pcbnew,6.0.4-6f826c9f35~116~ubuntu20.04.1*
G04 #@! TF.CreationDate,2022-04-19T11:59:19-04:00*
G04 #@! TF.ProjectId,arrm_panel,6172726d-5f70-4616-9e65-6c2e6b696361,rev?*
G04 #@! TF.SameCoordinates,Original*
G04 #@! TF.FileFunction,Legend,Top*
G04 #@! TF.FilePolarity,Positive*
%FSLAX46Y46*%
G04 Gerber Fmt 4.6, Leading zero omitted, Abs format (unit mm)*
G04 Created by KiCad (PCBNEW 6.0.4-6f826c9f35~116~ubuntu20.04.1) date 2022-04-19 11:59:19*
%MOMM*%
%LPD*%
G01*
G04 APERTURE LIST*
G04 APERTURE END LIST*
G04 #@! TO.C,GRAF2*
G36*
X38416402Y-141186987D02*
G01*
X38952578Y-141186987D01*
X39521096Y-143011262D01*
X39612692Y-143305083D01*
X39700043Y-143585103D01*
X39781948Y-143847483D01*
X39857206Y-144088385D01*
X39924615Y-144303968D01*
X39982976Y-144490395D01*
X40031086Y-144643826D01*
X40067745Y-144760422D01*
X40091751Y-144836345D01*
X40101904Y-144867755D01*
X40102031Y-144868100D01*
X40096949Y-144881730D01*
X40065030Y-144890461D01*
X39999866Y-144894813D01*
X39895045Y-144895309D01*
X39789346Y-144893525D01*
X39464244Y-144886387D01*
X39336736Y-144473224D01*
X39209228Y-144060060D01*
X38159941Y-144060060D01*
X38032433Y-144473224D01*
X37904926Y-144886387D01*
X37582843Y-144893503D01*
X37461601Y-144895463D01*
X37361213Y-144895719D01*
X37291236Y-144894346D01*
X37261229Y-144891422D01*
X37260761Y-144890908D01*
X37268088Y-144864662D01*
X37288361Y-144798235D01*
X37319014Y-144699871D01*
X37357485Y-144577818D01*
X37387888Y-144482086D01*
X37430343Y-144348139D01*
X37466781Y-144231914D01*
X37494634Y-144141705D01*
X37511335Y-144085804D01*
X37515015Y-144071517D01*
X37492877Y-144063466D01*
X37439552Y-144060061D01*
X37438739Y-144060060D01*
X37362463Y-144060060D01*
X37362463Y-143426653D01*
X37543380Y-143419182D01*
X37724297Y-143411712D01*
X37730229Y-143392643D01*
X38361340Y-143392643D01*
X38368318Y-143406156D01*
X38404640Y-143415497D01*
X38476212Y-143421246D01*
X38588937Y-143423984D01*
X38684585Y-143424425D01*
X38826512Y-143423297D01*
X38923534Y-143419527D01*
X38981558Y-143412535D01*
X39006487Y-143401739D01*
X39007829Y-143392643D01*
X38996933Y-143359450D01*
X38973378Y-143285727D01*
X38939696Y-143179471D01*
X38898423Y-143048681D01*
X38852094Y-142901355D01*
X38846802Y-142884495D01*
X38800314Y-142738333D01*
X38758420Y-142610317D01*
X38723624Y-142507797D01*
X38698426Y-142438120D01*
X38685328Y-142408633D01*
X38684585Y-142408129D01*
X38673442Y-142431204D01*
X38649837Y-142495531D01*
X38616273Y-142593761D01*
X38575250Y-142718548D01*
X38529271Y-142862544D01*
X38522368Y-142884495D01*
X38475637Y-143033152D01*
X38433685Y-143166150D01*
X38399045Y-143275494D01*
X38374252Y-143353184D01*
X38361840Y-143391224D01*
X38361340Y-143392643D01*
X37730229Y-143392643D01*
X38070349Y-142299350D01*
X38416402Y-141186987D01*
G37*
G36*
X51574713Y-191585741D02*
G01*
X51804299Y-191632416D01*
X52021529Y-191720722D01*
X52220255Y-191848728D01*
X52394334Y-192014502D01*
X52537618Y-192216111D01*
X52552503Y-192242717D01*
X52631600Y-192433386D01*
X52679360Y-192648354D01*
X52693481Y-192870173D01*
X52671660Y-193081394D01*
X52666400Y-193105706D01*
X52591068Y-193323702D01*
X52472332Y-193527184D01*
X52317115Y-193708918D01*
X52132342Y-193861670D01*
X51924935Y-193978207D01*
X51780420Y-194031358D01*
X51651887Y-194056250D01*
X51495544Y-194067748D01*
X51332673Y-194065731D01*
X51184552Y-194050078D01*
X51115376Y-194035145D01*
X50965098Y-193979609D01*
X50807013Y-193897923D01*
X50662844Y-193802330D01*
X50583834Y-193735620D01*
X50423483Y-193548558D01*
X50304454Y-193339241D01*
X50227621Y-193114516D01*
X50193858Y-192881232D01*
X50204039Y-192646236D01*
X50259038Y-192416375D01*
X50359728Y-192198498D01*
X50382842Y-192160973D01*
X50479853Y-192035447D01*
X50605861Y-191908550D01*
X50743561Y-191796027D01*
X50873267Y-191714824D01*
X51103051Y-191625013D01*
X51338915Y-191582629D01*
X51574713Y-191585741D01*
G37*
G36*
X40896988Y-144288889D02*
G01*
X42015315Y-144288889D01*
X42015315Y-144899099D01*
X40286056Y-144899099D01*
X40292578Y-143036687D01*
X40299099Y-141174275D01*
X40883884Y-141174275D01*
X40896988Y-144288889D01*
G37*
G36*
X26531231Y-191580181D02*
G01*
X26434871Y-191580181D01*
X26236153Y-191602859D01*
X26030198Y-191666749D01*
X25828104Y-191765632D01*
X25640974Y-191893291D01*
X25479905Y-192043506D01*
X25380470Y-192170866D01*
X25280062Y-192345417D01*
X25218006Y-192513787D01*
X25189387Y-192693801D01*
X25187694Y-192869706D01*
X25194550Y-192993898D01*
X25206362Y-193086581D01*
X25227639Y-193167092D01*
X25262887Y-193254769D01*
X25292140Y-193317858D01*
X25422437Y-193534445D01*
X25591090Y-193719600D01*
X25794238Y-193870235D01*
X26028018Y-193983264D01*
X26186974Y-194033184D01*
X26287362Y-194054651D01*
X26384330Y-194068699D01*
X26434871Y-194071872D01*
X26531231Y-194071872D01*
X26531231Y-194682082D01*
X26346897Y-194680683D01*
X26222483Y-194672609D01*
X26082769Y-194652987D01*
X25973834Y-194629864D01*
X25683813Y-194528255D01*
X25417135Y-194383045D01*
X25178151Y-194197802D01*
X24971213Y-193976098D01*
X24800674Y-193721503D01*
X24751192Y-193626927D01*
X24666009Y-193428104D01*
X24610816Y-193235129D01*
X24581502Y-193029423D01*
X24573849Y-192825515D01*
X24592103Y-192547299D01*
X24649760Y-192290594D01*
X24749939Y-192046665D01*
X24895755Y-191806775D01*
X24975313Y-191700076D01*
X25160417Y-191502364D01*
X25382752Y-191327892D01*
X25631877Y-191182212D01*
X25897347Y-191070876D01*
X26168719Y-190999434D01*
X26334184Y-190977700D01*
X26531231Y-190962433D01*
X26531231Y-191580181D01*
G37*
G36*
X36637838Y-166548849D02*
G01*
X35983133Y-166555635D01*
X35328429Y-166562420D01*
X35328429Y-166764965D01*
X36675976Y-166764965D01*
X36675976Y-167375176D01*
X35328429Y-167375176D01*
X35328429Y-167649513D01*
X35339875Y-167894357D01*
X35376766Y-168103347D01*
X35442928Y-168286655D01*
X35542187Y-168454454D01*
X35678370Y-168616917D01*
X35701125Y-168640348D01*
X35894940Y-168800698D01*
X36122133Y-168922900D01*
X36382134Y-169006668D01*
X36459175Y-169022902D01*
X36675976Y-169063832D01*
X36675976Y-169663464D01*
X36529780Y-169661075D01*
X36421129Y-169654210D01*
X36296520Y-169639075D01*
X36218267Y-169625704D01*
X35932716Y-169543330D01*
X35665747Y-169415556D01*
X35421740Y-169245810D01*
X35205073Y-169037518D01*
X35020126Y-168794107D01*
X34910736Y-168602375D01*
X34846727Y-168463398D01*
X34799419Y-168330486D01*
X34766005Y-168190729D01*
X34743676Y-168031218D01*
X34729628Y-167839042D01*
X34725751Y-167751496D01*
X34711392Y-167377766D01*
X34606747Y-167370114D01*
X34502102Y-167362463D01*
X34487776Y-166764965D01*
X34716959Y-166764965D01*
X34730931Y-165938639D01*
X36637838Y-165938639D01*
X36637838Y-166548849D01*
G37*
G36*
X46717083Y-135906362D02*
G01*
X46979986Y-135930335D01*
X47205638Y-135977673D01*
X47403801Y-136052369D01*
X47584241Y-136158414D01*
X47756721Y-136299802D01*
X47813256Y-136354594D01*
X47986889Y-136562367D01*
X48115430Y-136788283D01*
X48198869Y-137026962D01*
X48237194Y-137273023D01*
X48230395Y-137521086D01*
X48178463Y-137765769D01*
X48081388Y-138001692D01*
X47939158Y-138223475D01*
X47817077Y-138363024D01*
X47721616Y-138452285D01*
X47617204Y-138537888D01*
X47522358Y-138604948D01*
X47497954Y-138619554D01*
X47348861Y-138703420D01*
X47408965Y-138751113D01*
X47566398Y-138850748D01*
X47759852Y-138932112D01*
X47976334Y-138990490D01*
X48137264Y-139015440D01*
X48296951Y-139032570D01*
X48282683Y-139623324D01*
X48171281Y-139631305D01*
X48014003Y-139626355D01*
X47830273Y-139594281D01*
X47633732Y-139539240D01*
X47438025Y-139465385D01*
X47256793Y-139376871D01*
X47175185Y-139327974D01*
X47098658Y-139279505D01*
X47040115Y-139244282D01*
X47011284Y-139229339D01*
X47010554Y-139229230D01*
X47005048Y-139252647D01*
X47000902Y-139314878D01*
X46998818Y-139403889D01*
X46998699Y-139432633D01*
X46998699Y-139636036D01*
X46388489Y-139636036D01*
X46388489Y-137587941D01*
X46998572Y-137587941D01*
X46998921Y-137771891D01*
X47000837Y-137914116D01*
X47005412Y-138019175D01*
X47013740Y-138091631D01*
X47026912Y-138136044D01*
X47046021Y-138156975D01*
X47072159Y-138158984D01*
X47106418Y-138146632D01*
X47149891Y-138124481D01*
X47178745Y-138109456D01*
X47330450Y-138004993D01*
X47458455Y-137863276D01*
X47555652Y-137695116D01*
X47614934Y-137511327D01*
X47627289Y-137427063D01*
X47620054Y-137236981D01*
X47566864Y-137046985D01*
X47482140Y-136885895D01*
X47408751Y-136797682D01*
X47310777Y-136709628D01*
X47204050Y-136633798D01*
X47104402Y-136582256D01*
X47068619Y-136570788D01*
X46998699Y-136554047D01*
X46998699Y-137357705D01*
X46998572Y-137587941D01*
X46388489Y-137587941D01*
X46388489Y-135890644D01*
X46717083Y-135906362D01*
G37*
G36*
X34864580Y-143036687D02*
G01*
X34871101Y-144899099D01*
X34260561Y-144899099D01*
X34260561Y-142157484D01*
X34136180Y-142066181D01*
X34019958Y-141991151D01*
X33883496Y-141918346D01*
X33749803Y-141859427D01*
X33682132Y-141836074D01*
X33624925Y-141819196D01*
X33624925Y-144899099D01*
X33014385Y-144899099D01*
X33020906Y-143036687D01*
X33027428Y-141174275D01*
X33294395Y-141180240D01*
X33586881Y-141203276D01*
X33857487Y-141261053D01*
X34087627Y-141341742D01*
X34257936Y-141411850D01*
X34265605Y-141293062D01*
X34273273Y-141174275D01*
X34858058Y-141174275D01*
X34864580Y-143036687D01*
G37*
G36*
X39439161Y-135915232D02*
G01*
X39697399Y-135930623D01*
X39920282Y-135972050D01*
X40118168Y-136043272D01*
X40301413Y-136148051D01*
X40480374Y-136290145D01*
X40486127Y-136295332D01*
X40670673Y-136494150D01*
X40811163Y-136713211D01*
X40907452Y-136947116D01*
X40959396Y-137190467D01*
X40966850Y-137437865D01*
X40929669Y-137683909D01*
X40847710Y-137923202D01*
X40720827Y-138150344D01*
X40548877Y-138359935D01*
X40541584Y-138367348D01*
X40446848Y-138455415D01*
X40343289Y-138539811D01*
X40249779Y-138605413D01*
X40229179Y-138617673D01*
X40155046Y-138660653D01*
X40102441Y-138693361D01*
X40082983Y-138708476D01*
X40102784Y-138725066D01*
X40154746Y-138760644D01*
X40227705Y-138807571D01*
X40229179Y-138808496D01*
X40449207Y-138917843D01*
X40698704Y-138989871D01*
X40852529Y-139013417D01*
X41023724Y-139031750D01*
X41023724Y-139636036D01*
X40895525Y-139636036D01*
X40683203Y-139618030D01*
X40453271Y-139567426D01*
X40222225Y-139489347D01*
X40006559Y-139388914D01*
X39903513Y-139327974D01*
X39826987Y-139279505D01*
X39768443Y-139244282D01*
X39739612Y-139229339D01*
X39738882Y-139229230D01*
X39733376Y-139252647D01*
X39729231Y-139314878D01*
X39727146Y-139403889D01*
X39727027Y-139432633D01*
X39727027Y-139636036D01*
X39116487Y-139636036D01*
X39123008Y-137773624D01*
X39123658Y-137587941D01*
X39726901Y-137587941D01*
X39727249Y-137771891D01*
X39729165Y-137914116D01*
X39733741Y-138019175D01*
X39742069Y-138091631D01*
X39755241Y-138136044D01*
X39774350Y-138156975D01*
X39800488Y-138158984D01*
X39834747Y-138146632D01*
X39878220Y-138124481D01*
X39907073Y-138109456D01*
X40061870Y-138003547D01*
X40188555Y-137863074D01*
X40283152Y-137697520D01*
X40341688Y-137516368D01*
X40360186Y-137329099D01*
X40334671Y-137145196D01*
X40324925Y-137112653D01*
X40254806Y-136958567D01*
X40153505Y-136816425D01*
X40031055Y-136696512D01*
X39897489Y-136609117D01*
X39796947Y-136571316D01*
X39727027Y-136554047D01*
X39727027Y-137357705D01*
X39726901Y-137587941D01*
X39123658Y-137587941D01*
X39129530Y-135911212D01*
X39439161Y-135915232D01*
G37*
G36*
X21623406Y-156845248D02*
G01*
X21714520Y-156268325D01*
X21853653Y-155697698D01*
X22040872Y-155136429D01*
X22191654Y-154770710D01*
X22346823Y-154451028D01*
X22531788Y-154118301D01*
X22736832Y-153788145D01*
X22952238Y-153476179D01*
X23168287Y-153198021D01*
X23175736Y-153189096D01*
X23355489Y-152974287D01*
X22019436Y-151638056D01*
X20683384Y-150301824D01*
X20683384Y-99425247D01*
X29161519Y-90947819D01*
X37639655Y-82470391D01*
X37504554Y-82290701D01*
X37238065Y-81894828D01*
X37016167Y-81475158D01*
X36838448Y-81030782D01*
X36704501Y-80560793D01*
X36685319Y-80474861D01*
X36645198Y-80237034D01*
X36617776Y-79966938D01*
X36603615Y-79681686D01*
X36603448Y-79541578D01*
X36624546Y-79541578D01*
X36643514Y-79988175D01*
X36706800Y-80430334D01*
X36814097Y-80864598D01*
X36965096Y-81287510D01*
X37159489Y-81695614D01*
X37396968Y-82085453D01*
X37677226Y-82453571D01*
X37976255Y-82773655D01*
X38339763Y-83094370D01*
X38722667Y-83368591D01*
X39126765Y-83597190D01*
X39553855Y-83781039D01*
X40005735Y-83921010D01*
X40484203Y-84017976D01*
X40566066Y-84029935D01*
X40677258Y-84039759D01*
X40826930Y-84045110D01*
X41002937Y-84046303D01*
X41193134Y-84043652D01*
X41385376Y-84037470D01*
X41567519Y-84028072D01*
X41727416Y-84015772D01*
X41852924Y-84000884D01*
X41882468Y-83995883D01*
X42358710Y-83881812D01*
X42812455Y-83722742D01*
X43241696Y-83520059D01*
X43644430Y-83275148D01*
X44018650Y-82989396D01*
X44362353Y-82664189D01*
X44673531Y-82300913D01*
X44950181Y-81900953D01*
X44977222Y-81856757D01*
X45189667Y-81456899D01*
X45358209Y-81035440D01*
X45482423Y-80597154D01*
X45561883Y-80146815D01*
X45596164Y-79689197D01*
X45584838Y-79229074D01*
X45527482Y-78771218D01*
X45423668Y-78320404D01*
X45320759Y-78005138D01*
X45235644Y-77798888D01*
X45126413Y-77571305D01*
X45002179Y-77339547D01*
X44872057Y-77120772D01*
X44766838Y-76962363D01*
X44648070Y-76808460D01*
X44498355Y-76636184D01*
X44328434Y-76456281D01*
X44149047Y-76279495D01*
X43970937Y-76116571D01*
X43804843Y-75978256D01*
X43718819Y-75913947D01*
X43557699Y-75808332D01*
X43366181Y-75696332D01*
X43157960Y-75584911D01*
X42946729Y-75481033D01*
X42746185Y-75391663D01*
X42570022Y-75323765D01*
X42535953Y-75312419D01*
X42064343Y-75186646D01*
X41591175Y-75111038D01*
X41119132Y-75085173D01*
X40650898Y-75108624D01*
X40189157Y-75180969D01*
X39736592Y-75301783D01*
X39295887Y-75470642D01*
X38869725Y-75687122D01*
X38460790Y-75950799D01*
X38450718Y-75958058D01*
X38305601Y-76072539D01*
X38141819Y-76217636D01*
X37970114Y-76382477D01*
X37801224Y-76556189D01*
X37645889Y-76727900D01*
X37514849Y-76886739D01*
X37458655Y-76962363D01*
X37205250Y-77363000D01*
X36998010Y-77779940D01*
X36836627Y-78209724D01*
X36720795Y-78648896D01*
X36650203Y-79094000D01*
X36624546Y-79541578D01*
X36603448Y-79541578D01*
X36603278Y-79398393D01*
X36617329Y-79134172D01*
X36635846Y-78970971D01*
X36729812Y-78493703D01*
X36868601Y-78037592D01*
X37050020Y-77604907D01*
X37271876Y-77197916D01*
X37531977Y-76818888D01*
X37828129Y-76470092D01*
X38158140Y-76153795D01*
X38519817Y-75872267D01*
X38910967Y-75627775D01*
X39329396Y-75422588D01*
X39772913Y-75258975D01*
X40239324Y-75139204D01*
X40362663Y-75115773D01*
X40540200Y-75092278D01*
X40753310Y-75076539D01*
X40987920Y-75068549D01*
X41229960Y-75068299D01*
X41465358Y-75075783D01*
X41680042Y-75090991D01*
X41859942Y-75113915D01*
X41875476Y-75116632D01*
X42344621Y-75226127D01*
X42792872Y-75380494D01*
X43217748Y-75577424D01*
X43616765Y-75814608D01*
X43987441Y-76089740D01*
X44327293Y-76400511D01*
X44633837Y-76744612D01*
X44904593Y-77119737D01*
X45137076Y-77523576D01*
X45328804Y-77953822D01*
X45477295Y-78408167D01*
X45496968Y-78483311D01*
X45581414Y-78915831D01*
X45621686Y-79363907D01*
X45618314Y-79818854D01*
X45571827Y-80271992D01*
X45482754Y-80714637D01*
X45351624Y-81138107D01*
X45331946Y-81190184D01*
X45137751Y-81624180D01*
X44901998Y-82030833D01*
X44627339Y-82407923D01*
X44316427Y-82753233D01*
X43971912Y-83064545D01*
X43596448Y-83339639D01*
X43192686Y-83576299D01*
X42763279Y-83772305D01*
X42310877Y-83925440D01*
X41960239Y-84010386D01*
X41854273Y-84030546D01*
X41756181Y-84045553D01*
X41655438Y-84056133D01*
X41541523Y-84063011D01*
X41403913Y-84066912D01*
X41232084Y-84068560D01*
X41112713Y-84068769D01*
X40916240Y-84068095D01*
X40760082Y-84065588D01*
X40633718Y-84060523D01*
X40526625Y-84052177D01*
X40428279Y-84039823D01*
X40328158Y-84022738D01*
X40265187Y-84010386D01*
X39815149Y-83896035D01*
X39379363Y-83739432D01*
X38965268Y-83543900D01*
X38580301Y-83312760D01*
X38379480Y-83168440D01*
X38214214Y-83041714D01*
X29855606Y-91398971D01*
X21496997Y-99756228D01*
X21496997Y-149997098D01*
X22703965Y-151203866D01*
X23910933Y-152410633D01*
X23973262Y-152360622D01*
X24148831Y-152220526D01*
X24294547Y-152106258D01*
X24419536Y-152010984D01*
X24532921Y-151927872D01*
X24643827Y-151850089D01*
X24756837Y-151773819D01*
X24918920Y-151672660D01*
X25115426Y-151560478D01*
X25333415Y-151443830D01*
X25559946Y-151329268D01*
X25782080Y-151223347D01*
X25986877Y-151132622D01*
X26152613Y-151066834D01*
X26729715Y-150882651D01*
X27313576Y-150748648D01*
X27902434Y-150664874D01*
X28494528Y-150631377D01*
X29088096Y-150648205D01*
X29681376Y-150715407D01*
X30272607Y-150833030D01*
X30675576Y-150942747D01*
X31190322Y-151123649D01*
X31697611Y-151351236D01*
X32190892Y-151621352D01*
X32663611Y-151929840D01*
X33109215Y-152272542D01*
X33521152Y-152645302D01*
X33773524Y-152908109D01*
X34163489Y-153374375D01*
X34506902Y-153860801D01*
X34804369Y-154368521D01*
X35056498Y-154898674D01*
X35263897Y-155452397D01*
X35415957Y-155984585D01*
X35467330Y-156201215D01*
X35508136Y-156394149D01*
X35539522Y-156574029D01*
X35562633Y-156751494D01*
X35578614Y-156937186D01*
X35588610Y-157141746D01*
X35593768Y-157375813D01*
X35595232Y-157649950D01*
X35593767Y-157924155D01*
X35588608Y-158158213D01*
X35578610Y-158362766D01*
X35562628Y-158548455D01*
X35539515Y-158725919D01*
X35508127Y-158905801D01*
X35467317Y-159098740D01*
X35415957Y-159315316D01*
X35256359Y-159873065D01*
X35058004Y-160401583D01*
X34817855Y-160907307D01*
X34532878Y-161396673D01*
X34223176Y-161845146D01*
X33853723Y-162300414D01*
X33449150Y-162721063D01*
X33012529Y-163105375D01*
X32546937Y-163451637D01*
X32055446Y-163758131D01*
X31541132Y-164023144D01*
X31007068Y-164244958D01*
X30456330Y-164421859D01*
X29891991Y-164552132D01*
X29317125Y-164634060D01*
X29207257Y-164643996D01*
X28997498Y-164661221D01*
X28997498Y-165163164D01*
X28211151Y-165163164D01*
X28203874Y-164915918D01*
X28196597Y-164668673D01*
X27819581Y-164625510D01*
X27315698Y-164552051D01*
X26840709Y-164448755D01*
X26381243Y-164311685D01*
X25923928Y-164136907D01*
X25501502Y-163943312D01*
X25118228Y-163743349D01*
X24770912Y-163536183D01*
X24447399Y-163313086D01*
X24135537Y-163065331D01*
X23823174Y-162784191D01*
X23643966Y-162609382D01*
X23306969Y-162253361D01*
X23010899Y-161898137D01*
X22747343Y-161532195D01*
X22507890Y-161144016D01*
X22324469Y-160802703D01*
X22081339Y-160267472D01*
X21885757Y-159717097D01*
X21737789Y-159154639D01*
X21637502Y-158583163D01*
X21584964Y-158005730D01*
X21582466Y-157698707D01*
X21612934Y-157698707D01*
X21617187Y-157963587D01*
X21627680Y-158212850D01*
X21644412Y-158433278D01*
X21658318Y-158552553D01*
X21765648Y-159147798D01*
X21919989Y-159725567D01*
X22120354Y-160283857D01*
X22365755Y-160820668D01*
X22655205Y-161333996D01*
X22987717Y-161821839D01*
X23362304Y-162282194D01*
X23645446Y-162583430D01*
X24084386Y-162988547D01*
X24551857Y-163351933D01*
X25046095Y-163672698D01*
X25565335Y-163949949D01*
X26107812Y-164182798D01*
X26671762Y-164370352D01*
X27255419Y-164511722D01*
X27579102Y-164568689D01*
X27705487Y-164585092D01*
X27860727Y-164600710D01*
X28032550Y-164614768D01*
X28208684Y-164626492D01*
X28376860Y-164635107D01*
X28524806Y-164639839D01*
X28640252Y-164639915D01*
X28679680Y-164638130D01*
X28745945Y-164634142D01*
X28848331Y-164628790D01*
X28972152Y-164622813D01*
X29086487Y-164617652D01*
X29568746Y-164574349D01*
X30064373Y-164487131D01*
X30565337Y-164358210D01*
X31063609Y-164189802D01*
X31551157Y-163984121D01*
X31768454Y-163878193D01*
X32287350Y-163585809D01*
X32776003Y-163253276D01*
X33232566Y-162882629D01*
X33655192Y-162475901D01*
X34042036Y-162035126D01*
X34391250Y-161562338D01*
X34700988Y-161059572D01*
X34969405Y-160528862D01*
X35110342Y-160196629D01*
X35297221Y-159654912D01*
X35437627Y-159097118D01*
X35531560Y-158527814D01*
X35579021Y-157951564D01*
X35580009Y-157372933D01*
X35534525Y-156796489D01*
X35442568Y-156226796D01*
X35304139Y-155668420D01*
X35119237Y-155125926D01*
X35110342Y-155103272D01*
X34869082Y-154559907D01*
X34585965Y-154043416D01*
X34263221Y-153555768D01*
X33903084Y-153098933D01*
X33507783Y-152674880D01*
X33079551Y-152285577D01*
X32620620Y-151932993D01*
X32133221Y-151619097D01*
X31619585Y-151345859D01*
X31081944Y-151115247D01*
X30522531Y-150929230D01*
X30316440Y-150873610D01*
X30103440Y-150821243D01*
X29914817Y-150779327D01*
X29740463Y-150746745D01*
X29570271Y-150722382D01*
X29394133Y-150705123D01*
X29201941Y-150693852D01*
X28983587Y-150687454D01*
X28728964Y-150684813D01*
X28603404Y-150684554D01*
X28352286Y-150685170D01*
X28142236Y-150687806D01*
X27963479Y-150693408D01*
X27806245Y-150702924D01*
X27660759Y-150717300D01*
X27517249Y-150737484D01*
X27365943Y-150764422D01*
X27197068Y-150799062D01*
X27020469Y-150837944D01*
X26470314Y-150987120D01*
X25931736Y-151184428D01*
X25408547Y-151427745D01*
X24904561Y-151714948D01*
X24423590Y-152043914D01*
X23969448Y-152412520D01*
X23645382Y-152717073D01*
X23243995Y-153154438D01*
X22883373Y-153621408D01*
X22564596Y-154115790D01*
X22288745Y-154635390D01*
X22056902Y-155178017D01*
X21870148Y-155741478D01*
X21729563Y-156323580D01*
X21658318Y-156747348D01*
X21637612Y-156942530D01*
X21623147Y-157174961D01*
X21614921Y-157431426D01*
X21612934Y-157698707D01*
X21582466Y-157698707D01*
X21580243Y-157425404D01*
X21623406Y-156845248D01*
G37*
G36*
X35913213Y-96489089D02*
G01*
X35804141Y-96489089D01*
X35601200Y-96512592D01*
X35394251Y-96579002D01*
X35192676Y-96682168D01*
X35005860Y-96815942D01*
X34843186Y-96974175D01*
X34714039Y-97150718D01*
X34670591Y-97231902D01*
X34591371Y-97453299D01*
X34559649Y-97677541D01*
X34572697Y-97899530D01*
X34627785Y-98114170D01*
X34722186Y-98316364D01*
X34853170Y-98501014D01*
X35018009Y-98663025D01*
X35213975Y-98797299D01*
X35438338Y-98898740D01*
X35586060Y-98941867D01*
X35685313Y-98962296D01*
X35777349Y-98976293D01*
X35830581Y-98980405D01*
X35913213Y-98980781D01*
X35913213Y-99590991D01*
X35754304Y-99588602D01*
X35640819Y-99581762D01*
X35510686Y-99566512D01*
X35418470Y-99551089D01*
X35249725Y-99503523D01*
X35062651Y-99427252D01*
X34874158Y-99330228D01*
X34701158Y-99220402D01*
X34675258Y-99201590D01*
X34482879Y-99031114D01*
X34309167Y-98823165D01*
X34162113Y-98589992D01*
X34049706Y-98343837D01*
X33992091Y-98154455D01*
X33966788Y-98000371D01*
X33954164Y-97820898D01*
X33954209Y-97634659D01*
X33966914Y-97460280D01*
X33992270Y-97316383D01*
X33992521Y-97315416D01*
X34080859Y-97064360D01*
X34210698Y-96817375D01*
X34373513Y-96587655D01*
X34560781Y-96388397D01*
X34629845Y-96328845D01*
X34803102Y-96207005D01*
X35003360Y-96097203D01*
X35217642Y-96004494D01*
X35432972Y-95933935D01*
X35636373Y-95890582D01*
X35784749Y-95878879D01*
X35913213Y-95878879D01*
X35913213Y-96489089D01*
G37*
G36*
X40571196Y-53834181D02*
G01*
X40772403Y-53863043D01*
X40980810Y-53914807D01*
X41209873Y-53992469D01*
X41335185Y-54041473D01*
X41362403Y-54045912D01*
X41375620Y-54023182D01*
X41379580Y-53962715D01*
X41379680Y-53942360D01*
X41379680Y-53825226D01*
X41989890Y-53825226D01*
X41989890Y-57564377D01*
X41691141Y-57557214D01*
X41392393Y-57550050D01*
X41385816Y-56185104D01*
X41379240Y-54820157D01*
X41284114Y-54740802D01*
X41216170Y-54692094D01*
X41124810Y-54636970D01*
X41023151Y-54582130D01*
X40924312Y-54534274D01*
X40841408Y-54500104D01*
X40787559Y-54486321D01*
X40785871Y-54486287D01*
X40777193Y-54489435D01*
X40769797Y-54501361D01*
X40763581Y-54525788D01*
X40758444Y-54566435D01*
X40754285Y-54627027D01*
X40751002Y-54711283D01*
X40748495Y-54822927D01*
X40746663Y-54965680D01*
X40745403Y-55143264D01*
X40744615Y-55359401D01*
X40744199Y-55617813D01*
X40744051Y-55922221D01*
X40744044Y-56024525D01*
X40744044Y-57562763D01*
X40455889Y-57562763D01*
X40339569Y-57561349D01*
X40242584Y-57557511D01*
X40175854Y-57551855D01*
X40150784Y-57545813D01*
X40148019Y-57518237D01*
X40145394Y-57443848D01*
X40142945Y-57326683D01*
X40140710Y-57170779D01*
X40138726Y-56980175D01*
X40137028Y-56758906D01*
X40135653Y-56511012D01*
X40134639Y-56240528D01*
X40134021Y-55951494D01*
X40133834Y-55677044D01*
X40133834Y-53825226D01*
X40363735Y-53825226D01*
X40571196Y-53834181D01*
G37*
G36*
X41500451Y-95879501D02*
G01*
X41631686Y-95882027D01*
X41756165Y-95888388D01*
X41858199Y-95897563D01*
X41913614Y-95906357D01*
X42136868Y-95982203D01*
X42350941Y-96101485D01*
X42548265Y-96256814D01*
X42721270Y-96440802D01*
X42862387Y-96646059D01*
X42964049Y-96865195D01*
X42993401Y-96960516D01*
X43020826Y-97119388D01*
X43030755Y-97302859D01*
X43023184Y-97487836D01*
X42998113Y-97651225D01*
X42993472Y-97670042D01*
X42909597Y-97898392D01*
X42782763Y-98117644D01*
X42620850Y-98317516D01*
X42431736Y-98487728D01*
X42297907Y-98577622D01*
X42140046Y-98670258D01*
X42287441Y-98762702D01*
X42484787Y-98862740D01*
X42707719Y-98935517D01*
X42924274Y-98973097D01*
X43083183Y-98988134D01*
X43083183Y-99590991D01*
X42948013Y-99590991D01*
X42720125Y-99571285D01*
X42478058Y-99515452D01*
X42237635Y-99428423D01*
X42014677Y-99315128D01*
X41966291Y-99285073D01*
X41888904Y-99236028D01*
X41829422Y-99200149D01*
X41799426Y-99184393D01*
X41798341Y-99184185D01*
X41792836Y-99207602D01*
X41788690Y-99269833D01*
X41786605Y-99358844D01*
X41786487Y-99387588D01*
X41786487Y-99590991D01*
X41201702Y-99590991D01*
X41201702Y-97543281D01*
X41786324Y-97543281D01*
X41786615Y-97727603D01*
X41788531Y-97870175D01*
X41793240Y-97975543D01*
X41801912Y-98048255D01*
X41815716Y-98092857D01*
X41835824Y-98113898D01*
X41863403Y-98115925D01*
X41899624Y-98103485D01*
X41945656Y-98081126D01*
X41979790Y-98064201D01*
X42090708Y-97991338D01*
X42202393Y-97885190D01*
X42300263Y-97760951D01*
X42348252Y-97680256D01*
X42392413Y-97555108D01*
X42416189Y-97402796D01*
X42418393Y-97243245D01*
X42397838Y-97096378D01*
X42385602Y-97053320D01*
X42316717Y-96906743D01*
X42215322Y-96769219D01*
X42092368Y-96651651D01*
X41958804Y-96564947D01*
X41856407Y-96526271D01*
X41786487Y-96509002D01*
X41786487Y-97312659D01*
X41786324Y-97543281D01*
X41201702Y-97543281D01*
X41201702Y-95878879D01*
X41500451Y-95879501D01*
G37*
G36*
X37306270Y-190969970D02*
G01*
X37484696Y-190974641D01*
X37638423Y-190987912D01*
X37754618Y-191008672D01*
X37755227Y-191008830D01*
X37998914Y-191097769D01*
X38223876Y-191229728D01*
X38424135Y-191398596D01*
X38593717Y-191598265D01*
X38726645Y-191822625D01*
X38816944Y-192065565D01*
X38826691Y-192104282D01*
X38859809Y-192352122D01*
X38845465Y-192601269D01*
X38786482Y-192845462D01*
X38685682Y-193078440D01*
X38545888Y-193293942D01*
X38369922Y-193485705D01*
X38160607Y-193647469D01*
X38119542Y-193672957D01*
X38043193Y-193720258D01*
X38004601Y-193750899D01*
X37997137Y-193773033D01*
X38014171Y-193794813D01*
X38017840Y-193798045D01*
X38154881Y-193891574D01*
X38328395Y-193970838D01*
X38524827Y-194030698D01*
X38722723Y-194065179D01*
X38900701Y-194084585D01*
X38907864Y-194383334D01*
X38915027Y-194682082D01*
X38766337Y-194682082D01*
X38489505Y-194657527D01*
X38212205Y-194583528D01*
X37932818Y-194459590D01*
X37807408Y-194388259D01*
X37629430Y-194280280D01*
X37614660Y-194682082D01*
X37006507Y-194682082D01*
X37006507Y-193236260D01*
X37616717Y-193236260D01*
X37673924Y-193219637D01*
X37729106Y-193196882D01*
X37804654Y-193157855D01*
X37844246Y-193135007D01*
X37998181Y-193014224D01*
X38117551Y-192862401D01*
X38199651Y-192688126D01*
X38241778Y-192499992D01*
X38241225Y-192306589D01*
X38195290Y-192116508D01*
X38178135Y-192074420D01*
X38093848Y-191933435D01*
X37975762Y-191803312D01*
X37837680Y-191696512D01*
X37693408Y-191625497D01*
X37673924Y-191619246D01*
X37616717Y-191602179D01*
X37616717Y-193236260D01*
X37006507Y-193236260D01*
X37006507Y-190969970D01*
X37306270Y-190969970D01*
G37*
G36*
X33027428Y-14225126D02*
G01*
X32428260Y-14231931D01*
X32258586Y-14233141D01*
X32106082Y-14232862D01*
X31978032Y-14231217D01*
X31881721Y-14228333D01*
X31824433Y-14224334D01*
X31811694Y-14221337D01*
X31808733Y-14193589D01*
X31805931Y-14119212D01*
X31803331Y-14002425D01*
X31800974Y-13847450D01*
X31798905Y-13658508D01*
X31797166Y-13439819D01*
X31795800Y-13195604D01*
X31794849Y-12930084D01*
X31794356Y-12647480D01*
X31794294Y-12504672D01*
X31794294Y-10805406D01*
X33040498Y-10805406D01*
X33027428Y-14225126D01*
G37*
G36*
X47074975Y-144899099D02*
G01*
X46464765Y-144899099D01*
X46464765Y-142153473D01*
X46356707Y-142073823D01*
X46266092Y-142015160D01*
X46150546Y-141951367D01*
X46029596Y-141892325D01*
X45922768Y-141847910D01*
X45886336Y-141835857D01*
X45829129Y-141819196D01*
X45829129Y-144899099D01*
X45218589Y-144899099D01*
X45225110Y-143036687D01*
X45231632Y-141174275D01*
X45511311Y-141181088D01*
X45839173Y-141210361D01*
X46140531Y-141281285D01*
X46322815Y-141350241D01*
X46462140Y-141411857D01*
X46477478Y-141174275D01*
X46776226Y-141167111D01*
X47074975Y-141159948D01*
X47074975Y-144899099D01*
G37*
G36*
X46628549Y-157388482D02*
G01*
X46634985Y-157153735D01*
X46645537Y-156940178D01*
X46660205Y-156758079D01*
X46676363Y-156632933D01*
X46791917Y-156053136D01*
X46941770Y-155507332D01*
X47128234Y-154989989D01*
X47353615Y-154495573D01*
X47620224Y-154018553D01*
X47930370Y-153553394D01*
X48002696Y-153454755D01*
X48310258Y-153068550D01*
X48634308Y-152716029D01*
X48985673Y-152386393D01*
X49375183Y-152068846D01*
X49447293Y-152014299D01*
X49932592Y-151682199D01*
X50439934Y-151394826D01*
X50966420Y-151152596D01*
X51509151Y-150955923D01*
X52065227Y-150805222D01*
X52631749Y-150700908D01*
X53205818Y-150643394D01*
X53784533Y-150633097D01*
X54364997Y-150670429D01*
X54944309Y-150755807D01*
X55519570Y-150889643D01*
X56072812Y-151066834D01*
X56238874Y-151132957D01*
X56435242Y-151219972D01*
X56649285Y-151321529D01*
X56868373Y-151431277D01*
X57079873Y-151542865D01*
X57271154Y-151649943D01*
X57429586Y-151746161D01*
X57448549Y-151758484D01*
X57597378Y-151859301D01*
X57754278Y-151972126D01*
X57927536Y-152103164D01*
X58125440Y-152258623D01*
X58252550Y-152360622D01*
X58314492Y-152410633D01*
X59521460Y-151203866D01*
X60728429Y-149997098D01*
X60728429Y-57702632D01*
X52382547Y-49356722D01*
X51836513Y-48810734D01*
X51299494Y-48273858D01*
X50772611Y-47747209D01*
X50256985Y-47231906D01*
X49753736Y-46729067D01*
X49263986Y-46239809D01*
X48788854Y-45765250D01*
X48329461Y-45306508D01*
X47886929Y-44864700D01*
X47462377Y-44440943D01*
X47056928Y-44036356D01*
X46671700Y-43652056D01*
X46307816Y-43289161D01*
X45966396Y-42948789D01*
X45648560Y-42632056D01*
X45355429Y-42340082D01*
X45088124Y-42073983D01*
X44847766Y-41834877D01*
X44635475Y-41623882D01*
X44452373Y-41442115D01*
X44299579Y-41290695D01*
X44178215Y-41170738D01*
X44089400Y-41083363D01*
X44034257Y-41029687D01*
X44013906Y-41010827D01*
X44013844Y-41010811D01*
X43982723Y-41025769D01*
X43927626Y-41064119D01*
X43886703Y-41096258D01*
X43683971Y-41246232D01*
X43444684Y-41396641D01*
X43182555Y-41540232D01*
X42911296Y-41669754D01*
X42644619Y-41777954D01*
X42511111Y-41823767D01*
X42038324Y-41948844D01*
X41565332Y-42023256D01*
X41093714Y-42047124D01*
X40625049Y-42020572D01*
X40160915Y-41943723D01*
X39702891Y-41816699D01*
X39252555Y-41639624D01*
X39078679Y-41556688D01*
X38774315Y-41390651D01*
X38496827Y-41208887D01*
X38231051Y-41000563D01*
X37976871Y-40769410D01*
X37644042Y-40414663D01*
X37356454Y-40036970D01*
X37114572Y-39637484D01*
X36918859Y-39217356D01*
X36769779Y-38777739D01*
X36667794Y-38319786D01*
X36613370Y-37844649D01*
X36610403Y-37633288D01*
X36628208Y-37633288D01*
X36663739Y-38109394D01*
X36726967Y-38487554D01*
X36844748Y-38929655D01*
X37008650Y-39354974D01*
X37215787Y-39760291D01*
X37463271Y-40142386D01*
X37748216Y-40498039D01*
X38067732Y-40824028D01*
X38418934Y-41117135D01*
X38798934Y-41374137D01*
X39204845Y-41591815D01*
X39633778Y-41766949D01*
X39681909Y-41783366D01*
X40142716Y-41912348D01*
X40603661Y-41990732D01*
X41066588Y-42018740D01*
X41480138Y-42001625D01*
X41957360Y-41934738D01*
X42417629Y-41821129D01*
X42858276Y-41662650D01*
X43276633Y-41461154D01*
X43670032Y-41218494D01*
X44035805Y-40936522D01*
X44371283Y-40617090D01*
X44673799Y-40262051D01*
X44940683Y-39873256D01*
X45169268Y-39452560D01*
X45177889Y-39434435D01*
X45355714Y-39000482D01*
X45484539Y-38553786D01*
X45564511Y-38093606D01*
X45595780Y-37619202D01*
X45592710Y-37363156D01*
X45561206Y-36947371D01*
X45497472Y-36559809D01*
X45398158Y-36186837D01*
X45259911Y-35814824D01*
X45155003Y-35582483D01*
X44927630Y-35165742D01*
X44661089Y-34780245D01*
X44357634Y-34427744D01*
X44019520Y-34109989D01*
X43649003Y-33828732D01*
X43248337Y-33585725D01*
X42819779Y-33382718D01*
X42365584Y-33221463D01*
X41989890Y-33124693D01*
X41897655Y-33105832D01*
X41811792Y-33091520D01*
X41723056Y-33081149D01*
X41622204Y-33074108D01*
X41499991Y-33069788D01*
X41347174Y-33067580D01*
X41154510Y-33066873D01*
X41112713Y-33066859D01*
X40911284Y-33067353D01*
X40751451Y-33069243D01*
X40623963Y-33073135D01*
X40519571Y-33079637D01*
X40429025Y-33089358D01*
X40343077Y-33102906D01*
X40252475Y-33120889D01*
X40235536Y-33124519D01*
X39760692Y-33251781D01*
X39309839Y-33422676D01*
X38884986Y-33635880D01*
X38488141Y-33890070D01*
X38121315Y-34183923D01*
X37786517Y-34516114D01*
X37485756Y-34885320D01*
X37417989Y-34980549D01*
X37170130Y-35382302D01*
X36967916Y-35804496D01*
X36811983Y-36243910D01*
X36702964Y-36697327D01*
X36641494Y-37161525D01*
X36628208Y-37633288D01*
X36610403Y-37633288D01*
X36606618Y-37363636D01*
X36643724Y-36901318D01*
X36724224Y-36461256D01*
X36849931Y-36036431D01*
X37022660Y-35619826D01*
X37095224Y-35473369D01*
X37335217Y-35061793D01*
X37611098Y-34683919D01*
X37919681Y-34341048D01*
X38257785Y-34034479D01*
X38622225Y-33765515D01*
X39009819Y-33535455D01*
X39417383Y-33345602D01*
X39841734Y-33197255D01*
X40279688Y-33091715D01*
X40728062Y-33030284D01*
X41183674Y-33014261D01*
X41643338Y-33044949D01*
X42103873Y-33123647D01*
X42545602Y-33246154D01*
X42980403Y-33416619D01*
X43391711Y-33630459D01*
X43776900Y-33884679D01*
X44133347Y-34176282D01*
X44458427Y-34502271D01*
X44749517Y-34859652D01*
X45003990Y-35245428D01*
X45219225Y-35656604D01*
X45392595Y-36090182D01*
X45521477Y-36543168D01*
X45549769Y-36675776D01*
X45597608Y-37000098D01*
X45620684Y-37352915D01*
X45619134Y-37718387D01*
X45593098Y-38080671D01*
X45542711Y-38423925D01*
X45534222Y-38467103D01*
X45450727Y-38793218D01*
X45332296Y-39132673D01*
X45185126Y-39472250D01*
X45015412Y-39798729D01*
X44829352Y-40098894D01*
X44665374Y-40320519D01*
X44575700Y-40431127D01*
X53058871Y-48914327D01*
X61542042Y-57397526D01*
X61542042Y-150301824D01*
X60205017Y-151639028D01*
X58867992Y-152976231D01*
X58976410Y-153101079D01*
X59087167Y-153235294D01*
X59213226Y-153398937D01*
X59344097Y-153577612D01*
X59469289Y-153756921D01*
X59578313Y-153922469D01*
X59598953Y-153955397D01*
X59880999Y-154454320D01*
X60119003Y-154971204D01*
X60314273Y-155509717D01*
X60468120Y-156073525D01*
X60581855Y-156666294D01*
X60592151Y-156734635D01*
X60612451Y-156915741D01*
X60627030Y-157134894D01*
X60635888Y-157379612D01*
X60639024Y-157637412D01*
X60636439Y-157895814D01*
X60628133Y-158142336D01*
X60614105Y-158364496D01*
X60594356Y-158549813D01*
X60592151Y-158565266D01*
X60480896Y-159170686D01*
X60328606Y-159746695D01*
X60134375Y-160295112D01*
X59897301Y-160817752D01*
X59616479Y-161316434D01*
X59291007Y-161792975D01*
X58919980Y-162249191D01*
X58581459Y-162609050D01*
X58271689Y-162905446D01*
X57971228Y-163164092D01*
X57668245Y-163393487D01*
X57350911Y-163602132D01*
X57007397Y-163798524D01*
X56723924Y-163943647D01*
X56376034Y-164106010D01*
X56048431Y-164240027D01*
X55723933Y-164351728D01*
X55385356Y-164447142D01*
X55094895Y-164515347D01*
X54752389Y-164578095D01*
X54380571Y-164625349D01*
X53996621Y-164655901D01*
X53617719Y-164668545D01*
X53261043Y-164662073D01*
X53126226Y-164653691D01*
X52527916Y-164582811D01*
X51945004Y-164464247D01*
X51379653Y-164299414D01*
X50834026Y-164089725D01*
X50310285Y-163836594D01*
X49810594Y-163541437D01*
X49337116Y-163205668D01*
X48892014Y-162830701D01*
X48477451Y-162417949D01*
X48095590Y-161968829D01*
X47748594Y-161484753D01*
X47438625Y-160967136D01*
X47411636Y-160917118D01*
X47176851Y-160426649D01*
X46978145Y-159901387D01*
X46816020Y-159342873D01*
X46690981Y-158752651D01*
X46676363Y-158666967D01*
X46658105Y-158520701D01*
X46643962Y-158334019D01*
X46633935Y-158117188D01*
X46628024Y-157880476D01*
X46626343Y-157649950D01*
X46642805Y-157649950D01*
X46666976Y-158253680D01*
X46739538Y-158841909D01*
X46860558Y-159414842D01*
X47030105Y-159972686D01*
X47248249Y-160515647D01*
X47515058Y-161043930D01*
X47830601Y-161557742D01*
X48057807Y-161878615D01*
X48182140Y-162034555D01*
X48337370Y-162212463D01*
X48514283Y-162403052D01*
X48703667Y-162597034D01*
X48896307Y-162785122D01*
X49082990Y-162958028D01*
X49254502Y-163106465D01*
X49356470Y-163187702D01*
X49853885Y-163535145D01*
X50370844Y-163835879D01*
X50905804Y-164089469D01*
X51457222Y-164295478D01*
X52023557Y-164453471D01*
X52603265Y-164563011D01*
X53194803Y-164623663D01*
X53796629Y-164634992D01*
X54359359Y-164601351D01*
X54931102Y-164520874D01*
X55488919Y-164392935D01*
X56030484Y-164219581D01*
X56553469Y-164002859D01*
X57055548Y-163744818D01*
X57534394Y-163447505D01*
X57987680Y-163112967D01*
X58413079Y-162743252D01*
X58808265Y-162340409D01*
X59170910Y-161906484D01*
X59498687Y-161443526D01*
X59789271Y-160953582D01*
X60040333Y-160438699D01*
X60249547Y-159900925D01*
X60414586Y-159342309D01*
X60436124Y-159253732D01*
X60498128Y-158969484D01*
X60544770Y-158701605D01*
X60577617Y-158435616D01*
X60598237Y-158157039D01*
X60608197Y-157851396D01*
X60609708Y-157649950D01*
X60605341Y-157320536D01*
X60591201Y-157026876D01*
X60565727Y-156754540D01*
X60527359Y-156489099D01*
X60474538Y-156216122D01*
X60436545Y-156048149D01*
X60276764Y-155480939D01*
X60071053Y-154932811D01*
X59821485Y-154406269D01*
X59530129Y-153903818D01*
X59199056Y-153427962D01*
X58830338Y-152981205D01*
X58426044Y-152566052D01*
X57988247Y-152185008D01*
X57519015Y-151840576D01*
X57020422Y-151535262D01*
X56494536Y-151271570D01*
X56482635Y-151266238D01*
X55967727Y-151061379D01*
X55422926Y-150893978D01*
X54845466Y-150763226D01*
X54646324Y-150727825D01*
X54552650Y-150714172D01*
X54450297Y-150703530D01*
X54331925Y-150695587D01*
X54190190Y-150690035D01*
X54017754Y-150686561D01*
X53807273Y-150684858D01*
X53622022Y-150684554D01*
X53394606Y-150684993D01*
X53209836Y-150686453D01*
X53059509Y-150689364D01*
X52935425Y-150694157D01*
X52829382Y-150701261D01*
X52733178Y-150711107D01*
X52638611Y-150724124D01*
X52537480Y-150740743D01*
X52531908Y-150741711D01*
X51933045Y-150868850D01*
X51362356Y-151037516D01*
X50817015Y-151248930D01*
X50294192Y-151504312D01*
X49791058Y-151804883D01*
X49356470Y-152112198D01*
X49200300Y-152239013D01*
X49022778Y-152396527D01*
X48833117Y-152575455D01*
X48640532Y-152766508D01*
X48454235Y-152960399D01*
X48283440Y-153147840D01*
X48137361Y-153319544D01*
X48057807Y-153421286D01*
X47711084Y-153925957D01*
X47413139Y-154444969D01*
X47163903Y-154978526D01*
X46963308Y-155526835D01*
X46811284Y-156090101D01*
X46707762Y-156668532D01*
X46652675Y-157262331D01*
X46642805Y-157649950D01*
X46626343Y-157649950D01*
X46626228Y-157634152D01*
X46628549Y-157388482D01*
G37*
G36*
X66144044Y-198089089D02*
G01*
X16081382Y-198089089D01*
X16081382Y-197300901D01*
X66144044Y-197300901D01*
X66144044Y-198089089D01*
G37*
G36*
X19986201Y-190968359D02*
G01*
X20554567Y-192793439D01*
X20646117Y-193087333D01*
X20733416Y-193367426D01*
X20815266Y-193629880D01*
X20890467Y-193870855D01*
X20957819Y-194086514D01*
X21016123Y-194273018D01*
X21064181Y-194426530D01*
X21100792Y-194543210D01*
X21124758Y-194619220D01*
X21134878Y-194650722D01*
X21135008Y-194651083D01*
X21129746Y-194664741D01*
X21097596Y-194673476D01*
X21032136Y-194677812D01*
X20926944Y-194678274D01*
X20823342Y-194676508D01*
X20499601Y-194669370D01*
X20370758Y-194255705D01*
X20241914Y-193842040D01*
X19719876Y-193848898D01*
X19197839Y-193855756D01*
X19068500Y-194262563D01*
X18939162Y-194669370D01*
X18613257Y-194676508D01*
X18478486Y-194678759D01*
X18387166Y-194678059D01*
X18331945Y-194673675D01*
X18305471Y-194664876D01*
X18300392Y-194650927D01*
X18301996Y-194645487D01*
X18318679Y-194597790D01*
X18345455Y-194516586D01*
X18379133Y-194412033D01*
X18416527Y-194294291D01*
X18454447Y-194173517D01*
X18489704Y-194059873D01*
X18519111Y-193963515D01*
X18539478Y-193894603D01*
X18547618Y-193863296D01*
X18547648Y-193862823D01*
X18525532Y-193848929D01*
X18472253Y-193843045D01*
X18471371Y-193843043D01*
X18395095Y-193843043D01*
X18395095Y-193209636D01*
X18578535Y-193202165D01*
X18761975Y-193194695D01*
X18763956Y-193188339D01*
X19394903Y-193188339D01*
X19414453Y-193195372D01*
X19475878Y-193201236D01*
X19570203Y-193205400D01*
X19688457Y-193207334D01*
X19717836Y-193207408D01*
X19859617Y-193206277D01*
X19956498Y-193202498D01*
X20014386Y-193195487D01*
X20039188Y-193184664D01*
X20040485Y-193175626D01*
X20029596Y-193142426D01*
X20006049Y-193068703D01*
X19972381Y-192962460D01*
X19931128Y-192831701D01*
X19884826Y-192684432D01*
X19879711Y-192668135D01*
X19833256Y-192523446D01*
X19791052Y-192398307D01*
X19755630Y-192299717D01*
X19729520Y-192234672D01*
X19715252Y-192210171D01*
X19714240Y-192210478D01*
X19701995Y-192239351D01*
X19677488Y-192309074D01*
X19643306Y-192411860D01*
X19602031Y-192539924D01*
X19556250Y-192685478D01*
X19552081Y-192698899D01*
X19506278Y-192845658D01*
X19465192Y-192975707D01*
X19431328Y-193081247D01*
X19407191Y-193154477D01*
X19395285Y-193187599D01*
X19394903Y-193188339D01*
X18763956Y-193188339D01*
X19451527Y-190982683D01*
X19986201Y-190968359D01*
G37*
G36*
X43323592Y-53850651D02*
G01*
X43595768Y-53850651D01*
X43718133Y-53851612D01*
X43798804Y-53855445D01*
X43846919Y-53863573D01*
X43871613Y-53877423D01*
X43881131Y-53895146D01*
X43890689Y-53926131D01*
X43914185Y-54001752D01*
X43950404Y-54118108D01*
X43998128Y-54271295D01*
X44056141Y-54457409D01*
X44123225Y-54672548D01*
X44198164Y-54912809D01*
X44279741Y-55174289D01*
X44366740Y-55453085D01*
X44454916Y-55735597D01*
X44545661Y-56026516D01*
X44631850Y-56303232D01*
X44712302Y-56561923D01*
X44785835Y-56798770D01*
X44851266Y-57009953D01*
X44907412Y-57191651D01*
X44953093Y-57340044D01*
X44987124Y-57451312D01*
X45008326Y-57521634D01*
X45015516Y-57547159D01*
X44991703Y-57553094D01*
X44926711Y-57557990D01*
X44830207Y-57561369D01*
X44711859Y-57562753D01*
X44700389Y-57562763D01*
X44385263Y-57562763D01*
X44282960Y-57238589D01*
X44241635Y-57107026D01*
X44202982Y-56982861D01*
X44171116Y-56879391D01*
X44150157Y-56809916D01*
X44148966Y-56805854D01*
X44117275Y-56697292D01*
X43594809Y-56704152D01*
X43072343Y-56711011D01*
X42941849Y-57130531D01*
X42811355Y-57550050D01*
X42489612Y-57557166D01*
X42368443Y-57558847D01*
X42268130Y-57558333D01*
X42198236Y-57555817D01*
X42168322Y-57551486D01*
X42167868Y-57550777D01*
X42175293Y-57523227D01*
X42195823Y-57455707D01*
X42226841Y-57356607D01*
X42265729Y-57234316D01*
X42294995Y-57143244D01*
X42337828Y-57008986D01*
X42374505Y-56891173D01*
X42402383Y-56798520D01*
X42418822Y-56739742D01*
X42422122Y-56723757D01*
X42400011Y-56705952D01*
X42346659Y-56698304D01*
X42345063Y-56698299D01*
X42268005Y-56698299D01*
X42275143Y-56386837D01*
X42282282Y-56075376D01*
X42460260Y-56067651D01*
X42575195Y-56062663D01*
X43267987Y-56062663D01*
X43919790Y-56062663D01*
X43886623Y-55954605D01*
X43822792Y-55748544D01*
X43763413Y-55560515D01*
X43710199Y-55395684D01*
X43664867Y-55259217D01*
X43629130Y-55156280D01*
X43604702Y-55092040D01*
X43593601Y-55071553D01*
X43581942Y-55094805D01*
X43557816Y-55159446D01*
X43523699Y-55258259D01*
X43482066Y-55384029D01*
X43435395Y-55529538D01*
X43423483Y-55567349D01*
X43267987Y-56062663D01*
X42575195Y-56062663D01*
X42638238Y-56059927D01*
X43323592Y-53850651D01*
G37*
G36*
X45117327Y-200976845D02*
G01*
X45254942Y-201000820D01*
X45256480Y-201001219D01*
X45423337Y-201053114D01*
X45562887Y-201113273D01*
X45670904Y-201178359D01*
X45743165Y-201245037D01*
X45775447Y-201309969D01*
X45763525Y-201369819D01*
X45747768Y-201389310D01*
X45710577Y-201414113D01*
X45665539Y-201413132D01*
X45602037Y-201383695D01*
X45523638Y-201332950D01*
X45381209Y-201248136D01*
X45237208Y-201192771D01*
X45076188Y-201162538D01*
X44882701Y-201153123D01*
X44879882Y-201153119D01*
X44764636Y-201153679D01*
X44688457Y-201157445D01*
X44639565Y-201167106D01*
X44606181Y-201185350D01*
X44576523Y-201214865D01*
X44568421Y-201224191D01*
X44516362Y-201316249D01*
X44514310Y-201415005D01*
X44543241Y-201491003D01*
X44588263Y-201553730D01*
X44669216Y-201642336D01*
X44781332Y-201752214D01*
X44919842Y-201878760D01*
X45079976Y-202017367D01*
X45142643Y-202069865D01*
X45357052Y-202256148D01*
X45547690Y-202438251D01*
X45710412Y-202611540D01*
X45841074Y-202771383D01*
X45935530Y-202913147D01*
X45980947Y-203006977D01*
X46028680Y-203193600D01*
X46041341Y-203397353D01*
X46019755Y-203601243D01*
X45964748Y-203788276D01*
X45940418Y-203841404D01*
X45826181Y-204012187D01*
X45671813Y-204159112D01*
X45483319Y-204279698D01*
X45266707Y-204371468D01*
X45027983Y-204431941D01*
X44773152Y-204458640D01*
X44508221Y-204449085D01*
X44476756Y-204445474D01*
X44296074Y-204414661D01*
X44126256Y-204369737D01*
X43972426Y-204313813D01*
X43839714Y-204250004D01*
X43733247Y-204181423D01*
X43658152Y-204111184D01*
X43619557Y-204042399D01*
X43622589Y-203978182D01*
X43647628Y-203942022D01*
X43684321Y-203917933D01*
X43729942Y-203917855D01*
X43793342Y-203944541D01*
X43883372Y-204000740D01*
X43921914Y-204027265D01*
X44094373Y-204127236D01*
X44287617Y-204205024D01*
X44296408Y-204207800D01*
X44401477Y-204238274D01*
X44490315Y-204256687D01*
X44581453Y-204265167D01*
X44693424Y-204265844D01*
X44779799Y-204263337D01*
X44910050Y-204257081D01*
X45002955Y-204247588D01*
X45072013Y-204232314D01*
X45130724Y-204208713D01*
X45164204Y-204190859D01*
X45270847Y-204108681D01*
X45330701Y-204008516D01*
X45346046Y-203909419D01*
X45341168Y-203856328D01*
X45324203Y-203802471D01*
X45291651Y-203744234D01*
X45240016Y-203678003D01*
X45165798Y-203600165D01*
X45065501Y-203507106D01*
X44935625Y-203395212D01*
X44772673Y-203260869D01*
X44573147Y-203100464D01*
X44528833Y-203065166D01*
X44313375Y-202888027D01*
X44138239Y-202730172D01*
X43999259Y-202586258D01*
X43892268Y-202450940D01*
X43813101Y-202318875D01*
X43757589Y-202184718D01*
X43721568Y-202043125D01*
X43718406Y-202025662D01*
X43705001Y-201815670D01*
X43738676Y-201620935D01*
X43817127Y-201444601D01*
X43938048Y-201289811D01*
X44099134Y-201159707D01*
X44298078Y-201057433D01*
X44470014Y-201001071D01*
X44606974Y-200976988D01*
X44773644Y-200964925D01*
X44950328Y-200964879D01*
X45117327Y-200976845D01*
G37*
G36*
X31943034Y-165943434D02*
G01*
X32132658Y-165950262D01*
X32286089Y-165965653D01*
X32417678Y-165992558D01*
X32541771Y-166033931D01*
X32672718Y-166092723D01*
X32675658Y-166094172D01*
X32905051Y-166234422D01*
X33102023Y-166410267D01*
X33262923Y-166616265D01*
X33384100Y-166846976D01*
X33461905Y-167096957D01*
X33490570Y-167308868D01*
X33494205Y-167473418D01*
X33482240Y-167609138D01*
X33463631Y-167698515D01*
X33378123Y-167939660D01*
X33252169Y-168167018D01*
X33092815Y-168371052D01*
X32907106Y-168542227D01*
X32773477Y-168632597D01*
X32603583Y-168731955D01*
X32662953Y-168779980D01*
X32775190Y-168852398D01*
X32922000Y-168921115D01*
X33087137Y-168980612D01*
X33254357Y-169025371D01*
X33407413Y-169049872D01*
X33466016Y-169052812D01*
X33548649Y-169053254D01*
X33548649Y-169663464D01*
X33427878Y-169663272D01*
X33186265Y-169642405D01*
X32933131Y-169583847D01*
X32684643Y-169492558D01*
X32456967Y-169373499D01*
X32431756Y-169357546D01*
X32354369Y-169308501D01*
X32294887Y-169272622D01*
X32264892Y-169256865D01*
X32263807Y-169256657D01*
X32258301Y-169280075D01*
X32254155Y-169342306D01*
X32252071Y-169431317D01*
X32251952Y-169460060D01*
X32251952Y-169663464D01*
X31641412Y-169663464D01*
X31646484Y-168214897D01*
X32251952Y-168214897D01*
X32347297Y-168175298D01*
X32432394Y-168134292D01*
X32522134Y-168083015D01*
X32539447Y-168071929D01*
X32612625Y-168011838D01*
X32687554Y-167932355D01*
X32717425Y-167893870D01*
X32820230Y-167709228D01*
X32875758Y-167515530D01*
X32883942Y-167319127D01*
X32844716Y-167126371D01*
X32758014Y-166943614D01*
X32727817Y-166898702D01*
X32653246Y-166814363D01*
X32555484Y-166729999D01*
X32450514Y-166657441D01*
X32354316Y-166608518D01*
X32321872Y-166598216D01*
X32251952Y-166581475D01*
X32251952Y-168214897D01*
X31646484Y-168214897D01*
X31647933Y-167801051D01*
X31652204Y-166581475D01*
X31654455Y-165938639D01*
X31943034Y-165943434D01*
G37*
G36*
X37834781Y-55681282D02*
G01*
X37836826Y-55537632D01*
X37842814Y-55429386D01*
X37854846Y-55341131D01*
X37875025Y-55257454D01*
X37905452Y-55162941D01*
X37905483Y-55162853D01*
X37947773Y-55050187D01*
X37995005Y-54939388D01*
X38037706Y-54852526D01*
X38041917Y-54845036D01*
X38217467Y-54588919D01*
X38430477Y-54363249D01*
X38675096Y-54171826D01*
X38945472Y-54018452D01*
X39235753Y-53906930D01*
X39540088Y-53841060D01*
X39597919Y-53834134D01*
X39752453Y-53817982D01*
X39752453Y-54423972D01*
X39564279Y-54453912D01*
X39440697Y-54481077D01*
X39309076Y-54521521D01*
X39214679Y-54559159D01*
X39053253Y-54634466D01*
X39504555Y-54636653D01*
X39955856Y-54638839D01*
X39955856Y-57562763D01*
X39784234Y-57559422D01*
X39659433Y-57554157D01*
X39521994Y-57544193D01*
X39441236Y-57536121D01*
X39162822Y-57478697D01*
X38895459Y-57374944D01*
X38645216Y-57229138D01*
X38418161Y-57045556D01*
X38220365Y-56828474D01*
X38057895Y-56582169D01*
X38039929Y-56548692D01*
X37948199Y-56354405D01*
X37886404Y-56172830D01*
X37850292Y-55985983D01*
X37836098Y-55782892D01*
X38434313Y-55782892D01*
X38472965Y-56017221D01*
X38556226Y-56246865D01*
X38559301Y-56253354D01*
X38684119Y-56461686D01*
X38842898Y-56632886D01*
X39037833Y-56769010D01*
X39184575Y-56839495D01*
X39262349Y-56871181D01*
X39318377Y-56893454D01*
X39339289Y-56901099D01*
X39340822Y-56876818D01*
X39342221Y-56807651D01*
X39343441Y-56699564D01*
X39344437Y-56558522D01*
X39345163Y-56390489D01*
X39345571Y-56201432D01*
X39345646Y-56075376D01*
X39345646Y-55249049D01*
X38811712Y-55249049D01*
X38810669Y-55039290D01*
X38809626Y-54829530D01*
X38709609Y-54940135D01*
X38577917Y-55122500D01*
X38487598Y-55328461D01*
X38439460Y-55550949D01*
X38434313Y-55782892D01*
X37836098Y-55782892D01*
X37835608Y-55775877D01*
X37834781Y-55681282D01*
G37*
G36*
X46185085Y-136507851D02*
G01*
X45530380Y-136514636D01*
X44875676Y-136521422D01*
X44867785Y-136616767D01*
X44859893Y-136712113D01*
X46210511Y-136712113D01*
X46210511Y-137347748D01*
X44855285Y-137347748D01*
X44869755Y-137671922D01*
X44879908Y-137838779D01*
X44894585Y-137967103D01*
X44915588Y-138069137D01*
X44938847Y-138141925D01*
X45032373Y-138337738D01*
X45157414Y-138519812D01*
X45302399Y-138672084D01*
X45347299Y-138708972D01*
X45491216Y-138810087D01*
X45632599Y-138886423D01*
X45785824Y-138943685D01*
X45965267Y-138987573D01*
X46115165Y-139013543D01*
X46210511Y-139028130D01*
X46210511Y-139636036D01*
X46077027Y-139633046D01*
X45969473Y-139626904D01*
X45858199Y-139615040D01*
X45823113Y-139609777D01*
X45541853Y-139537255D01*
X45273818Y-139419082D01*
X45025171Y-139259966D01*
X44802076Y-139064612D01*
X44610695Y-138837728D01*
X44457191Y-138584021D01*
X44443610Y-138556203D01*
X44379452Y-138409474D01*
X44332197Y-138268464D01*
X44298913Y-138119583D01*
X44276665Y-137949241D01*
X44262520Y-137743847D01*
X44260954Y-137710060D01*
X44244981Y-137347748D01*
X44049349Y-137347748D01*
X44049349Y-136712113D01*
X44251462Y-136712113D01*
X44258464Y-136311662D01*
X44265466Y-135911212D01*
X45225275Y-135904550D01*
X46185085Y-135897887D01*
X46185085Y-136507851D01*
G37*
G36*
X46701692Y-95878879D02*
G01*
X46902290Y-95883840D01*
X47056859Y-95898954D01*
X47152993Y-95919467D01*
X47401054Y-96016649D01*
X47625242Y-96152595D01*
X47821344Y-96321914D01*
X47985146Y-96519213D01*
X48112435Y-96739100D01*
X48198998Y-96976183D01*
X48240621Y-97225071D01*
X48243793Y-97315416D01*
X48219360Y-97559140D01*
X48149377Y-97800048D01*
X48038816Y-98029567D01*
X47892653Y-98239123D01*
X47715861Y-98420144D01*
X47522387Y-98558860D01*
X47442675Y-98606647D01*
X47383490Y-98644358D01*
X47355550Y-98665107D01*
X47354655Y-98666630D01*
X47375390Y-98687916D01*
X47429544Y-98724914D01*
X47505045Y-98770621D01*
X47589819Y-98818030D01*
X47671790Y-98860138D01*
X47738886Y-98889939D01*
X47740847Y-98890685D01*
X47825007Y-98916213D01*
X47937336Y-98942167D01*
X48055453Y-98963461D01*
X48071378Y-98965810D01*
X48282683Y-98995960D01*
X48289879Y-99297294D01*
X48297075Y-99598627D01*
X48073763Y-99583716D01*
X47844059Y-99552035D01*
X47609201Y-99490320D01*
X47385008Y-99404122D01*
X47187299Y-99298993D01*
X47108453Y-99244945D01*
X47053811Y-99206396D01*
X47017712Y-99185448D01*
X47013108Y-99184185D01*
X47006416Y-99207601D01*
X47001377Y-99269830D01*
X46998843Y-99358838D01*
X46998699Y-99387588D01*
X46998699Y-99590991D01*
X46388489Y-99590991D01*
X46388489Y-98139097D01*
X46998699Y-98139097D01*
X47076754Y-98111887D01*
X47143253Y-98081767D01*
X47226886Y-98034900D01*
X47273801Y-98005151D01*
X47417951Y-97880150D01*
X47525004Y-97727720D01*
X47594153Y-97556055D01*
X47624588Y-97373350D01*
X47615501Y-97187799D01*
X47566082Y-97007596D01*
X47475524Y-96840936D01*
X47397933Y-96747560D01*
X47325033Y-96682453D01*
X47236835Y-96617977D01*
X47147202Y-96562795D01*
X47070001Y-96525569D01*
X47024969Y-96514515D01*
X47016506Y-96539802D01*
X47009685Y-96615696D01*
X47004504Y-96742242D01*
X47000963Y-96919488D01*
X46999059Y-97147481D01*
X46998699Y-97326806D01*
X46998699Y-98139097D01*
X46388489Y-98139097D01*
X46388489Y-95878879D01*
X46701692Y-95878879D01*
G37*
G36*
X48880180Y-166561562D02*
G01*
X48801390Y-166561562D01*
X48678155Y-166583166D01*
X48568460Y-166641877D01*
X48483679Y-166728545D01*
X48435189Y-166834019D01*
X48430358Y-166860030D01*
X48429087Y-166941966D01*
X48451669Y-167020551D01*
X48502945Y-167104056D01*
X48587757Y-167200752D01*
X48684913Y-167294936D01*
X48867633Y-167468407D01*
X49014155Y-167617466D01*
X49128879Y-167748324D01*
X49216201Y-167867193D01*
X49280520Y-167980283D01*
X49326236Y-168093807D01*
X49357745Y-168213976D01*
X49365840Y-168256515D01*
X49379755Y-168476082D01*
X49347003Y-168691209D01*
X49271765Y-168896939D01*
X49158222Y-169088314D01*
X49010557Y-169260377D01*
X48832949Y-169408170D01*
X48629581Y-169526738D01*
X48404633Y-169611121D01*
X48187337Y-169653725D01*
X48041141Y-169670465D01*
X48041141Y-169361859D01*
X48041455Y-169232449D01*
X48043468Y-169145463D01*
X48048791Y-169092477D01*
X48059032Y-169065064D01*
X48075802Y-169054798D01*
X48100090Y-169053254D01*
X48248492Y-169030870D01*
X48399219Y-168969557D01*
X48538440Y-168878077D01*
X48652323Y-168765188D01*
X48717312Y-168662332D01*
X48759014Y-168554646D01*
X48775574Y-168456355D01*
X48764296Y-168360705D01*
X48722489Y-168260941D01*
X48647459Y-168150308D01*
X48536513Y-168022052D01*
X48410416Y-167892600D01*
X48265365Y-167746425D01*
X48152031Y-167626422D01*
X48064125Y-167524979D01*
X47995360Y-167434483D01*
X47939446Y-167347321D01*
X47899022Y-167273474D01*
X47863067Y-167196942D01*
X47841322Y-167127653D01*
X47830263Y-167047801D01*
X47826370Y-166939581D01*
X47826098Y-166904805D01*
X47827624Y-166785961D01*
X47835758Y-166699841D01*
X47853845Y-166628425D01*
X47885231Y-166553689D01*
X47895067Y-166533353D01*
X47999795Y-166372010D01*
X48142707Y-166226313D01*
X48312184Y-166104289D01*
X48496606Y-166013966D01*
X48684353Y-165963372D01*
X48727666Y-165958119D01*
X48880180Y-165944289D01*
X48880180Y-166561562D01*
G37*
G36*
X29124625Y-10820037D02*
G01*
X29398047Y-10821172D01*
X29626673Y-10823796D01*
X29816555Y-10828635D01*
X29973740Y-10836413D01*
X30104280Y-10847856D01*
X30214224Y-10863690D01*
X30309621Y-10884639D01*
X30396523Y-10911429D01*
X30480978Y-10944786D01*
X30569036Y-10985434D01*
X30590158Y-10995755D01*
X30797154Y-11123895D01*
X30967573Y-11283407D01*
X31099386Y-11468572D01*
X31190563Y-11673673D01*
X31239074Y-11892992D01*
X31242889Y-12120810D01*
X31199979Y-12351410D01*
X31133806Y-12527300D01*
X31020928Y-12714712D01*
X30868595Y-12885447D01*
X30687679Y-13030126D01*
X30489048Y-13139370D01*
X30376328Y-13180910D01*
X30221031Y-13227930D01*
X30284191Y-13395730D01*
X30386278Y-13624038D01*
X30503864Y-13809212D01*
X30635237Y-13948983D01*
X30766285Y-14035267D01*
X30838975Y-14064919D01*
X30913287Y-14080006D01*
X31008331Y-14083363D01*
X31076130Y-14081248D01*
X31174991Y-14077541D01*
X31233587Y-14079144D01*
X31262448Y-14088950D01*
X31272102Y-14109853D01*
X31273073Y-14135386D01*
X31249951Y-14199774D01*
X31209510Y-14230356D01*
X31135627Y-14251034D01*
X31031366Y-14260175D01*
X30915856Y-14257846D01*
X30808227Y-14244112D01*
X30750651Y-14228778D01*
X30595024Y-14153679D01*
X30455478Y-14043528D01*
X30328228Y-13894095D01*
X30209490Y-13701152D01*
X30126332Y-13531110D01*
X30015372Y-13284385D01*
X29873930Y-13271274D01*
X29768808Y-13252374D01*
X29707544Y-13217353D01*
X29684786Y-13162899D01*
X29684373Y-13154015D01*
X29697385Y-13114565D01*
X29741396Y-13086589D01*
X29822006Y-13068461D01*
X29944816Y-13058557D01*
X30021302Y-13056228D01*
X30167906Y-13050011D01*
X30280743Y-13036270D01*
X30376655Y-13012430D01*
X30428557Y-12993980D01*
X30585915Y-12909992D01*
X30736574Y-12787728D01*
X30867689Y-12639391D01*
X30961162Y-12488053D01*
X30998027Y-12410020D01*
X31022004Y-12345670D01*
X31035850Y-12280105D01*
X31042322Y-12198426D01*
X31044176Y-12085733D01*
X31044244Y-12039074D01*
X31042968Y-11909477D01*
X31037590Y-11816143D01*
X31025784Y-11744514D01*
X31005225Y-11680034D01*
X30976354Y-11614023D01*
X30865569Y-11437078D01*
X30711516Y-11284710D01*
X30516305Y-11158551D01*
X30282045Y-11060229D01*
X30243343Y-11047882D01*
X30150785Y-11027276D01*
X30021507Y-11009278D01*
X29869633Y-10995634D01*
X29779519Y-10990527D01*
X29455534Y-10976092D01*
X29448988Y-12600609D01*
X29442443Y-14225126D01*
X28222022Y-14225126D01*
X28222022Y-10818119D01*
X29124625Y-10820037D01*
G37*
G36*
X35913213Y-136200662D02*
G01*
X35912544Y-136336074D01*
X35907794Y-136428743D01*
X35894850Y-136486774D01*
X35869598Y-136518274D01*
X35827925Y-136531349D01*
X35765716Y-136534107D01*
X35743995Y-136534135D01*
X35676385Y-136542307D01*
X35580590Y-136563857D01*
X35476049Y-136594331D01*
X35464416Y-136598183D01*
X35231073Y-136699456D01*
X35028153Y-136833538D01*
X34858144Y-136995293D01*
X34723532Y-137179591D01*
X34626805Y-137381296D01*
X34570450Y-137595277D01*
X34556953Y-137816401D01*
X34588802Y-138039534D01*
X34664013Y-138250160D01*
X34795424Y-138472643D01*
X34962590Y-138659462D01*
X35163975Y-138809523D01*
X35398041Y-138921733D01*
X35663252Y-138994997D01*
X35725700Y-139005791D01*
X35913213Y-139034943D01*
X35913213Y-139636036D01*
X35767017Y-139633647D01*
X35658390Y-139626726D01*
X35533818Y-139611442D01*
X35455556Y-139597927D01*
X35156471Y-139512780D01*
X34882166Y-139383324D01*
X34633880Y-139210321D01*
X34412854Y-138994538D01*
X34346204Y-138914191D01*
X34174533Y-138659285D01*
X34051834Y-138391704D01*
X33977298Y-138109164D01*
X33950120Y-137809381D01*
X33949985Y-137792693D01*
X33956583Y-137593171D01*
X33981136Y-137419003D01*
X34028114Y-137250916D01*
X34101989Y-137069636D01*
X34133015Y-137003668D01*
X34288006Y-136739118D01*
X34480746Y-136506996D01*
X34708245Y-136309294D01*
X34967513Y-136148009D01*
X35255559Y-136025136D01*
X35569392Y-135942669D01*
X35767017Y-135913605D01*
X35913213Y-135898055D01*
X35913213Y-136200662D01*
G37*
G36*
X41513163Y-135905833D02*
G01*
X41788086Y-135932865D01*
X42026747Y-135987750D01*
X42237582Y-136074096D01*
X42429028Y-136195510D01*
X42609522Y-136355603D01*
X42640861Y-136388129D01*
X42809747Y-136598311D01*
X42930097Y-136820936D01*
X43003520Y-137059998D01*
X43031623Y-137319490D01*
X43032031Y-137359446D01*
X43011825Y-137614618D01*
X42950222Y-137847185D01*
X42844551Y-138063296D01*
X42692142Y-138269100D01*
X42589899Y-138377687D01*
X42495454Y-138465836D01*
X42401543Y-138544532D01*
X42320648Y-138603767D01*
X42275926Y-138629446D01*
X42211946Y-138661915D01*
X42173187Y-138689226D01*
X42167868Y-138697863D01*
X42189463Y-138731489D01*
X42247075Y-138778040D01*
X42329944Y-138830497D01*
X42427307Y-138881844D01*
X42498349Y-138913378D01*
X42604823Y-138949053D01*
X42735052Y-138982000D01*
X42862097Y-139005469D01*
X42870487Y-139006624D01*
X43083183Y-139035082D01*
X43083183Y-139643538D01*
X42863111Y-139626622D01*
X42610486Y-139586934D01*
X42351125Y-139509323D01*
X42103681Y-139399925D01*
X42005198Y-139344402D01*
X41918446Y-139292683D01*
X41848914Y-139252993D01*
X41807402Y-139231422D01*
X41800978Y-139229230D01*
X41794248Y-139252646D01*
X41789180Y-139314875D01*
X41786632Y-139403883D01*
X41786487Y-139432633D01*
X41786487Y-139636036D01*
X41201702Y-139636036D01*
X41201702Y-137592339D01*
X41786295Y-137592339D01*
X41786598Y-137777730D01*
X41788713Y-137920988D01*
X41793957Y-138026471D01*
X41803650Y-138098535D01*
X41819107Y-138141535D01*
X41841646Y-138159829D01*
X41872585Y-138157772D01*
X41913242Y-138139720D01*
X41964934Y-138110029D01*
X42005944Y-138086054D01*
X42167310Y-137965075D01*
X42295661Y-137809345D01*
X42373533Y-137654871D01*
X42403032Y-137562309D01*
X42417129Y-137472004D01*
X42418539Y-137362032D01*
X42416264Y-137309610D01*
X42395249Y-137137905D01*
X42347704Y-136995340D01*
X42266288Y-136863965D01*
X42203261Y-136788698D01*
X42136614Y-136727957D01*
X42049701Y-136665778D01*
X41957430Y-136611065D01*
X41874709Y-136572723D01*
X41819633Y-136559560D01*
X41810093Y-136568731D01*
X41802471Y-136599249D01*
X41796580Y-136655627D01*
X41792234Y-136742372D01*
X41789245Y-136863997D01*
X41787427Y-137025011D01*
X41786593Y-137229925D01*
X41786487Y-137360461D01*
X41786295Y-137592339D01*
X41201702Y-137592339D01*
X41201702Y-135890771D01*
X41513163Y-135905833D01*
G37*
G36*
X45803704Y-56952553D02*
G01*
X46922423Y-56952553D01*
X46922423Y-57562763D01*
X46074908Y-57562763D01*
X45872157Y-57562272D01*
X45685789Y-57560878D01*
X45521858Y-57558700D01*
X45386418Y-57555857D01*
X45285522Y-57552467D01*
X45225226Y-57548649D01*
X45210444Y-57545813D01*
X45207678Y-57518237D01*
X45205053Y-57443848D01*
X45202605Y-57326683D01*
X45200370Y-57170779D01*
X45198385Y-56980175D01*
X45196688Y-56758906D01*
X45195313Y-56511012D01*
X45194298Y-56240528D01*
X45193680Y-55951494D01*
X45193494Y-55677044D01*
X45193494Y-53825226D01*
X45803704Y-53825226D01*
X45803704Y-56952553D01*
G37*
G36*
X36906312Y-97003638D02*
G01*
X37251063Y-95891592D01*
X37520899Y-95884396D01*
X37642009Y-95882016D01*
X37721624Y-95883444D01*
X37769034Y-95889928D01*
X37793532Y-95902721D01*
X37804249Y-95922534D01*
X37813856Y-95953658D01*
X37837393Y-96029419D01*
X37873643Y-96145915D01*
X37921389Y-96299239D01*
X37979415Y-96485488D01*
X38046503Y-96700756D01*
X38121438Y-96941139D01*
X38203003Y-97202733D01*
X38289980Y-97481632D01*
X38378301Y-97764789D01*
X38469010Y-98055767D01*
X38555167Y-98332519D01*
X38635591Y-98591229D01*
X38709102Y-98828078D01*
X38774517Y-99039251D01*
X38830657Y-99220931D01*
X38876340Y-99369299D01*
X38910385Y-99480541D01*
X38931612Y-99550838D01*
X38938839Y-99576350D01*
X38915022Y-99581905D01*
X38849999Y-99586491D01*
X38753412Y-99589665D01*
X38634903Y-99590979D01*
X38622006Y-99590991D01*
X38305173Y-99590991D01*
X38269052Y-99470221D01*
X38246833Y-99397321D01*
X38213867Y-99290874D01*
X38174796Y-99165800D01*
X38138421Y-99050193D01*
X38043912Y-98750936D01*
X37519520Y-98757801D01*
X36995129Y-98764665D01*
X36739657Y-99590991D01*
X36095310Y-99590991D01*
X36155994Y-99393944D01*
X36196404Y-99265631D01*
X36242380Y-99123923D01*
X36281062Y-99008110D01*
X36318127Y-98896161D01*
X36337556Y-98823120D01*
X36339161Y-98780132D01*
X36322755Y-98758339D01*
X36288150Y-98748886D01*
X36275526Y-98747285D01*
X36205606Y-98739240D01*
X36198467Y-98427778D01*
X36191328Y-98116317D01*
X37189879Y-98116317D01*
X37848972Y-98116317D01*
X37832031Y-98059110D01*
X37794810Y-97935890D01*
X37752091Y-97798458D01*
X37706507Y-97654830D01*
X37660692Y-97513023D01*
X37617278Y-97381055D01*
X37578899Y-97266942D01*
X37548187Y-97178702D01*
X37527776Y-97124351D01*
X37520547Y-97110718D01*
X37509973Y-97136983D01*
X37486430Y-97204342D01*
X37452388Y-97305438D01*
X37410316Y-97432913D01*
X37362684Y-97579411D01*
X37350013Y-97618717D01*
X37189879Y-98116317D01*
X36191328Y-98116317D01*
X36561562Y-98115683D01*
X36906312Y-97003638D01*
G37*
G36*
X66144044Y-17899099D02*
G01*
X16081382Y-17899099D01*
X16081382Y-17110911D01*
X66144044Y-17110911D01*
X66144044Y-17899099D01*
G37*
G36*
X26365966Y-166548849D02*
G01*
X26200701Y-166566103D01*
X25960031Y-166613561D01*
X25737410Y-166700747D01*
X25536984Y-166822648D01*
X25362897Y-166974253D01*
X25219293Y-167150550D01*
X25110317Y-167346526D01*
X25040112Y-167557170D01*
X25012825Y-167777470D01*
X25028961Y-167983107D01*
X25095931Y-168218977D01*
X25206178Y-168433503D01*
X25355166Y-168622651D01*
X25538358Y-168782389D01*
X25751218Y-168908681D01*
X25989208Y-168997495D01*
X26219770Y-169041896D01*
X26378679Y-169059822D01*
X26378679Y-169663464D01*
X26219770Y-169661443D01*
X26103017Y-169654341D01*
X25972805Y-169638250D01*
X25895596Y-169624425D01*
X25601262Y-169537047D01*
X25330640Y-169406105D01*
X25086878Y-169234544D01*
X24873120Y-169025305D01*
X24692515Y-168781333D01*
X24548208Y-168505571D01*
X24468815Y-168289850D01*
X24441073Y-168188979D01*
X24423422Y-168091688D01*
X24413914Y-167981433D01*
X24410601Y-167841668D01*
X24410518Y-167794695D01*
X24412006Y-167656524D01*
X24417641Y-167552658D01*
X24429887Y-167466581D01*
X24451210Y-167381774D01*
X24484075Y-167281721D01*
X24489289Y-167266832D01*
X24581975Y-167039719D01*
X24692675Y-166843412D01*
X24833071Y-166658260D01*
X24888042Y-166596114D01*
X25101479Y-166395546D01*
X25343430Y-166226592D01*
X25604996Y-166093595D01*
X25877277Y-166000895D01*
X26151374Y-165952832D01*
X26215935Y-165948444D01*
X26365966Y-165941494D01*
X26365966Y-166548849D01*
G37*
G36*
X21671920Y-181529033D02*
G01*
X21792162Y-180947497D01*
X21792452Y-180946337D01*
X21948179Y-180422316D01*
X22150383Y-179901631D01*
X22394936Y-179392580D01*
X22677708Y-178903463D01*
X22994569Y-178442579D01*
X23117517Y-178283505D01*
X23238156Y-178140482D01*
X23387548Y-177976101D01*
X23555393Y-177800690D01*
X23731388Y-177624582D01*
X23905232Y-177458107D01*
X24066625Y-177311596D01*
X24192092Y-177205845D01*
X24673646Y-176852746D01*
X25181216Y-176542647D01*
X25711832Y-176276790D01*
X26262521Y-176056415D01*
X26830314Y-175882764D01*
X27412238Y-175757078D01*
X27790680Y-175702388D01*
X27918045Y-175687876D01*
X28029777Y-175675863D01*
X28114751Y-175667495D01*
X28161844Y-175663918D01*
X28164659Y-175663864D01*
X28171706Y-175661906D01*
X28177973Y-175654155D01*
X28183503Y-175637802D01*
X28188344Y-175610036D01*
X28192541Y-175568045D01*
X28196140Y-175509019D01*
X28199186Y-175430145D01*
X28201725Y-175328615D01*
X28203803Y-175201615D01*
X28205466Y-175046336D01*
X28206759Y-174859966D01*
X28207727Y-174639694D01*
X28208418Y-174382710D01*
X28208875Y-174086202D01*
X28209146Y-173747359D01*
X28209275Y-173363370D01*
X28209309Y-172931424D01*
X28209309Y-170171972D01*
X28997498Y-170171972D01*
X28997498Y-175659817D01*
X29169119Y-175676039D01*
X29781592Y-175757905D01*
X30372742Y-175885625D01*
X30942129Y-176059048D01*
X31489317Y-176278021D01*
X32013865Y-176542392D01*
X32474125Y-176824273D01*
X32962048Y-177179951D01*
X33413110Y-177569890D01*
X33826069Y-177992060D01*
X34199684Y-178444429D01*
X34532714Y-178924968D01*
X34823915Y-179431646D01*
X35072047Y-179962432D01*
X35275868Y-180515295D01*
X35434136Y-181088206D01*
X35545610Y-181679134D01*
X35573721Y-181893093D01*
X35595298Y-182146782D01*
X35606217Y-182434459D01*
X35606869Y-182741747D01*
X35597645Y-183054267D01*
X35578936Y-183357640D01*
X35551135Y-183637490D01*
X35520555Y-183846650D01*
X35392385Y-184435462D01*
X35217705Y-185005872D01*
X34997829Y-185555648D01*
X34734071Y-186082558D01*
X34427745Y-186584372D01*
X34080166Y-187058856D01*
X33692647Y-187503780D01*
X33266503Y-187916913D01*
X32982204Y-188157127D01*
X32519955Y-188495522D01*
X32026148Y-188796866D01*
X31506465Y-189058732D01*
X30966590Y-189278695D01*
X30412207Y-189454327D01*
X29848998Y-189583203D01*
X29518719Y-189635813D01*
X29354978Y-189653267D01*
X29156491Y-189667500D01*
X28935954Y-189678214D01*
X28706066Y-189685106D01*
X28479524Y-189687879D01*
X28269024Y-189686229D01*
X28087264Y-189679859D01*
X27981309Y-189672179D01*
X27384011Y-189589813D01*
X26802500Y-189460151D01*
X26239029Y-189284663D01*
X25695851Y-189064822D01*
X25175220Y-188802101D01*
X24679389Y-188497970D01*
X24210611Y-188153903D01*
X23771139Y-187771371D01*
X23363227Y-187351846D01*
X22989128Y-186896802D01*
X22651095Y-186407709D01*
X22440756Y-186052411D01*
X22180296Y-185530353D01*
X21965956Y-184989299D01*
X21798156Y-184432552D01*
X21677313Y-183863414D01*
X21603849Y-183285191D01*
X21578183Y-182701184D01*
X21581303Y-182620038D01*
X21605135Y-182620038D01*
X21623719Y-183198156D01*
X21690164Y-183774166D01*
X21804866Y-184344771D01*
X21968222Y-184906674D01*
X22025648Y-185069974D01*
X22113884Y-185292417D01*
X22223265Y-185538758D01*
X22346783Y-185795069D01*
X22477430Y-186047423D01*
X22608195Y-186281891D01*
X22732072Y-186484547D01*
X22755180Y-186519699D01*
X23107946Y-187005050D01*
X23495225Y-187454174D01*
X23918730Y-187868742D01*
X24380174Y-188250424D01*
X24881271Y-188600891D01*
X24904004Y-188615460D01*
X25052383Y-188703754D01*
X25236499Y-188803296D01*
X25444174Y-188908304D01*
X25663231Y-189012992D01*
X25881493Y-189111576D01*
X26086784Y-189198273D01*
X26266925Y-189267299D01*
X26302403Y-189279686D01*
X26880363Y-189451898D01*
X27458434Y-189573554D01*
X28038615Y-189644917D01*
X28622907Y-189666246D01*
X29111912Y-189646177D01*
X29706357Y-189576340D01*
X30286119Y-189458495D01*
X30849006Y-189293928D01*
X31392824Y-189083924D01*
X31915379Y-188829769D01*
X32414479Y-188532748D01*
X32887930Y-188194147D01*
X33333540Y-187815252D01*
X33749113Y-187397347D01*
X34132459Y-186941719D01*
X34428476Y-186530003D01*
X34730547Y-186032140D01*
X34989065Y-185508369D01*
X35204114Y-184958471D01*
X35375779Y-184382226D01*
X35504142Y-183779416D01*
X35520571Y-183681088D01*
X35541573Y-183513334D01*
X35557966Y-183306896D01*
X35569569Y-183073749D01*
X35576203Y-182825866D01*
X35577690Y-182575221D01*
X35573850Y-182333789D01*
X35564503Y-182113542D01*
X35549470Y-181926454D01*
X35547161Y-181905806D01*
X35452579Y-181306535D01*
X35310354Y-180724397D01*
X35121019Y-180160670D01*
X34885102Y-179616632D01*
X34603137Y-179093560D01*
X34275653Y-178592731D01*
X34040997Y-178282683D01*
X33929650Y-178151197D01*
X33789259Y-177997241D01*
X33629873Y-177830865D01*
X33461541Y-177662118D01*
X33294310Y-177501052D01*
X33138229Y-177357715D01*
X33003348Y-177242158D01*
X32989289Y-177230816D01*
X32508501Y-176878021D01*
X32004396Y-176569549D01*
X31479732Y-176306064D01*
X30937265Y-176088231D01*
X30379755Y-175916716D01*
X29809958Y-175792184D01*
X29230632Y-175715299D01*
X28644535Y-175686728D01*
X28054423Y-175707136D01*
X27463056Y-175777187D01*
X27177835Y-175828990D01*
X26619791Y-175967664D01*
X26075045Y-176153977D01*
X25546887Y-176385714D01*
X25038606Y-176660657D01*
X24553491Y-176976590D01*
X24094833Y-177331296D01*
X23665921Y-177722559D01*
X23270044Y-178148162D01*
X22910491Y-178605889D01*
X22781786Y-178791192D01*
X22476465Y-179291733D01*
X22216225Y-179813249D01*
X22001463Y-180352442D01*
X21832576Y-180906015D01*
X21709961Y-181470670D01*
X21634015Y-182043110D01*
X21605135Y-182620038D01*
X21581303Y-182620038D01*
X21600733Y-182114697D01*
X21671920Y-181529033D01*
G37*
G36*
X41810707Y-200973519D02*
G01*
X41977177Y-200997616D01*
X42138209Y-201040536D01*
X42303336Y-201101444D01*
X42456454Y-201173301D01*
X42581458Y-201249067D01*
X42619169Y-201278205D01*
X42681248Y-201350690D01*
X42701188Y-201422722D01*
X42676750Y-201485157D01*
X42671291Y-201491011D01*
X42625771Y-201517626D01*
X42568914Y-201510927D01*
X42492724Y-201468649D01*
X42431800Y-201423205D01*
X42231083Y-201290729D01*
X42015344Y-201201575D01*
X41778051Y-201153751D01*
X41519520Y-201145021D01*
X41290691Y-201152853D01*
X41284139Y-202710161D01*
X41277587Y-204267468D01*
X41445734Y-204267468D01*
X41689727Y-204243235D01*
X41935421Y-204172301D01*
X42076846Y-204109640D01*
X42192568Y-204036793D01*
X42321333Y-203932379D01*
X42450600Y-203808775D01*
X42567831Y-203678361D01*
X42660486Y-203553516D01*
X42689607Y-203504705D01*
X42722741Y-203439349D01*
X42745341Y-203379474D01*
X42760057Y-203311832D01*
X42769539Y-203223173D01*
X42776439Y-203100245D01*
X42778078Y-203062427D01*
X42784806Y-202929446D01*
X42792814Y-202838485D01*
X42803633Y-202780711D01*
X42818791Y-202747294D01*
X42835285Y-202732026D01*
X42890124Y-202717703D01*
X42924274Y-202732120D01*
X42936638Y-202743429D01*
X42946589Y-202763642D01*
X42954448Y-202798060D01*
X42960537Y-202851983D01*
X42965177Y-202930711D01*
X42968687Y-203039547D01*
X42971390Y-203183789D01*
X42973606Y-203368740D01*
X42975478Y-203577770D01*
X42982187Y-204395364D01*
X42919024Y-204424143D01*
X42868163Y-204441700D01*
X42830990Y-204437497D01*
X42805455Y-204406026D01*
X42789509Y-204341783D01*
X42781104Y-204239263D01*
X42778189Y-204092960D01*
X42778078Y-204045442D01*
X42778078Y-203702514D01*
X42668213Y-203851508D01*
X42500646Y-204036974D01*
X42297172Y-204191664D01*
X42064114Y-204313125D01*
X41807796Y-204398906D01*
X41534543Y-204446553D01*
X41250680Y-204453615D01*
X41138138Y-204444804D01*
X40857120Y-204390208D01*
X40597479Y-204289533D01*
X40360162Y-204143231D01*
X40182702Y-203989351D01*
X40003825Y-203777654D01*
X39864788Y-203537795D01*
X39773596Y-203301302D01*
X39748571Y-203213242D01*
X39731673Y-203130261D01*
X39721458Y-203038806D01*
X39716482Y-202925329D01*
X39715301Y-202776277D01*
X39715348Y-202754655D01*
X39716697Y-202606210D01*
X39720891Y-202495175D01*
X39729650Y-202408123D01*
X39744693Y-202331628D01*
X39767737Y-202252260D01*
X39786945Y-202195296D01*
X39909420Y-201917658D01*
X40072991Y-201667739D01*
X40274017Y-201449082D01*
X40508854Y-201265236D01*
X40773862Y-201119746D01*
X40968636Y-201044792D01*
X41153114Y-201000164D01*
X41367257Y-200972834D01*
X41592607Y-200963664D01*
X41810707Y-200973519D01*
G37*
G36*
X37642142Y-57562763D02*
G01*
X37353987Y-57562763D01*
X37237667Y-57561349D01*
X37140682Y-57557511D01*
X37073952Y-57551855D01*
X37048882Y-57545813D01*
X37046117Y-57518237D01*
X37043492Y-57443848D01*
X37041043Y-57326683D01*
X37038809Y-57170779D01*
X37036824Y-56980175D01*
X37035126Y-56758906D01*
X37033751Y-56511012D01*
X37032737Y-56240528D01*
X37032119Y-55951494D01*
X37031932Y-55677044D01*
X37031932Y-53825226D01*
X37642142Y-53825226D01*
X37642142Y-57562763D01*
G37*
G36*
X34622873Y-11243019D02*
G01*
X34822948Y-11401537D01*
X35037954Y-11571990D01*
X35257895Y-11746446D01*
X35472774Y-11916975D01*
X35672597Y-12075644D01*
X35847367Y-12214523D01*
X35919848Y-12272164D01*
X36064315Y-12386701D01*
X36195724Y-12490139D01*
X36308865Y-12578438D01*
X36398530Y-12647557D01*
X36459512Y-12693457D01*
X36486601Y-12712099D01*
X36487312Y-12712313D01*
X36490383Y-12687823D01*
X36492924Y-12618092D01*
X36494886Y-12508727D01*
X36496216Y-12365336D01*
X36496865Y-12193525D01*
X36496780Y-11998902D01*
X36495911Y-11787075D01*
X36495842Y-11775462D01*
X36495031Y-11561392D01*
X36495205Y-11362941D01*
X36496286Y-11185954D01*
X36498200Y-11036275D01*
X36500872Y-10919745D01*
X36504225Y-10842210D01*
X36508185Y-10809513D01*
X36508306Y-10809296D01*
X36550508Y-10782774D01*
X36609878Y-10788113D01*
X36661447Y-10819935D01*
X36669319Y-10831999D01*
X36676100Y-10853666D01*
X36681868Y-10888485D01*
X36686703Y-10940003D01*
X36690685Y-11011766D01*
X36693894Y-11107324D01*
X36696409Y-11230222D01*
X36698310Y-11384009D01*
X36699676Y-11572233D01*
X36700588Y-11798440D01*
X36701125Y-12066178D01*
X36701366Y-12378996D01*
X36701402Y-12599714D01*
X36701130Y-12892038D01*
X36700347Y-13168933D01*
X36699097Y-13426285D01*
X36697424Y-13659982D01*
X36695375Y-13865910D01*
X36692994Y-14039956D01*
X36690326Y-14178008D01*
X36687416Y-14275951D01*
X36684310Y-14329673D01*
X36682332Y-14338971D01*
X36659556Y-14323572D01*
X36600225Y-14279326D01*
X36507725Y-14208855D01*
X36385443Y-14114782D01*
X36236768Y-13999732D01*
X36065085Y-13866326D01*
X35873782Y-13717188D01*
X35666247Y-13554941D01*
X35445865Y-13382208D01*
X35369118Y-13321954D01*
X35145392Y-13146361D01*
X34933593Y-12980373D01*
X34737084Y-12826610D01*
X34559223Y-12687688D01*
X34403372Y-12566225D01*
X34272891Y-12464840D01*
X34171141Y-12386151D01*
X34101483Y-12332774D01*
X34067277Y-12307329D01*
X34064316Y-12305506D01*
X34062052Y-12329998D01*
X34060252Y-12399747D01*
X34058946Y-12509161D01*
X34058164Y-12652646D01*
X34057934Y-12824610D01*
X34058286Y-13019462D01*
X34059250Y-13231608D01*
X34059344Y-13247396D01*
X34060325Y-13530772D01*
X34059565Y-13765997D01*
X34057076Y-13952544D01*
X34052869Y-14089886D01*
X34046956Y-14177495D01*
X34039347Y-14214845D01*
X34038765Y-14215550D01*
X33996183Y-14232094D01*
X33939484Y-14233470D01*
X33895371Y-14224676D01*
X33874101Y-14202001D01*
X33867651Y-14151050D01*
X33867526Y-14104355D01*
X33867789Y-14058332D01*
X33868193Y-13966082D01*
X33868721Y-13832228D01*
X33869357Y-13661392D01*
X33870085Y-13458199D01*
X33870887Y-13227271D01*
X33871747Y-12973232D01*
X33872649Y-12700704D01*
X33873577Y-12414312D01*
X33873882Y-12318804D01*
X33879179Y-10654024D01*
X34622873Y-11243019D01*
G37*
G36*
X50151452Y-169663464D02*
G01*
X49566667Y-169663464D01*
X49566667Y-165925926D01*
X50151452Y-165925926D01*
X50151452Y-169663464D01*
G37*
G36*
X39430020Y-95878879D02*
G01*
X39704591Y-95894585D01*
X39946309Y-95943754D01*
X40163095Y-96029467D01*
X40362872Y-96154802D01*
X40541814Y-96311084D01*
X40715904Y-96517224D01*
X40844894Y-96741537D01*
X40928805Y-96978749D01*
X40967657Y-97223581D01*
X40961470Y-97470759D01*
X40910267Y-97715005D01*
X40814067Y-97951042D01*
X40672890Y-98173596D01*
X40533889Y-98332113D01*
X40436071Y-98422629D01*
X40333374Y-98505797D01*
X40241880Y-98568956D01*
X40211176Y-98586210D01*
X40072402Y-98656469D01*
X40134822Y-98707015D01*
X40265178Y-98791835D01*
X40428847Y-98867572D01*
X40608385Y-98928217D01*
X40786349Y-98967762D01*
X40928378Y-98980340D01*
X41023724Y-98980781D01*
X41023724Y-99598518D01*
X40801251Y-99583662D01*
X40511010Y-99540008D01*
X40225027Y-99450399D01*
X39955519Y-99319101D01*
X39846669Y-99250158D01*
X39786880Y-99210843D01*
X39746545Y-99187235D01*
X39738611Y-99184185D01*
X39733231Y-99207602D01*
X39729180Y-99269834D01*
X39727143Y-99358845D01*
X39727027Y-99387588D01*
X39727027Y-99590991D01*
X39116817Y-99590991D01*
X39116817Y-98142425D01*
X39727027Y-98142425D01*
X39822372Y-98102825D01*
X39907988Y-98061591D01*
X39997475Y-98010420D01*
X40013092Y-98000403D01*
X40119920Y-97907543D01*
X40218563Y-97781163D01*
X40296781Y-97638429D01*
X40325859Y-97561739D01*
X40358489Y-97377215D01*
X40346750Y-97186003D01*
X40293580Y-97000061D01*
X40201917Y-96831348D01*
X40123106Y-96736610D01*
X40056457Y-96679063D01*
X39971579Y-96619393D01*
X39882937Y-96566288D01*
X39805001Y-96528437D01*
X39753298Y-96514515D01*
X39744843Y-96539793D01*
X39738026Y-96615662D01*
X39732847Y-96742171D01*
X39729303Y-96919370D01*
X39727393Y-97147310D01*
X39727027Y-97328470D01*
X39727027Y-98142425D01*
X39116817Y-98142425D01*
X39116817Y-95878879D01*
X39430020Y-95878879D01*
G37*
G36*
X34489390Y-194682082D02*
G01*
X33879179Y-194682082D01*
X33879179Y-190969970D01*
X34489390Y-190969970D01*
X34489390Y-194682082D01*
G37*
G36*
X37250229Y-135936637D02*
G01*
X37792221Y-135922229D01*
X37828649Y-136043847D01*
X37842210Y-136088095D01*
X37869624Y-136176645D01*
X37909572Y-136305262D01*
X37960735Y-136469715D01*
X38021794Y-136665770D01*
X38091430Y-136889194D01*
X38168324Y-137135753D01*
X38251159Y-137401214D01*
X38338614Y-137681344D01*
X38401957Y-137884155D01*
X38490755Y-138168647D01*
X38574967Y-138438892D01*
X38653384Y-138690979D01*
X38724796Y-138921000D01*
X38787994Y-139125044D01*
X38841768Y-139299202D01*
X38884907Y-139439564D01*
X38916204Y-139542221D01*
X38934447Y-139603262D01*
X38938839Y-139619440D01*
X38915029Y-139625762D01*
X38850056Y-139630974D01*
X38753603Y-139634567D01*
X38635354Y-139636027D01*
X38624745Y-139636036D01*
X38310651Y-139636036D01*
X38216838Y-139337288D01*
X38175701Y-139207289D01*
X38135415Y-139081718D01*
X38100930Y-138975908D01*
X38079345Y-138911412D01*
X38035665Y-138784285D01*
X37522450Y-138777406D01*
X37009234Y-138770528D01*
X36873414Y-139196926D01*
X36737595Y-139623324D01*
X36411373Y-139630462D01*
X36275587Y-139632623D01*
X36183489Y-139631669D01*
X36127973Y-139626945D01*
X36101938Y-139617800D01*
X36098277Y-139603580D01*
X36098914Y-139601733D01*
X36120769Y-139540258D01*
X36151406Y-139448161D01*
X36187647Y-139335683D01*
X36226313Y-139213068D01*
X36264225Y-139090558D01*
X36298207Y-138978395D01*
X36325078Y-138886823D01*
X36341660Y-138826082D01*
X36345446Y-138807279D01*
X36322529Y-138779601D01*
X36269169Y-138771572D01*
X36192893Y-138771572D01*
X36192893Y-138163590D01*
X36377040Y-138156119D01*
X36561188Y-138148649D01*
X36566238Y-138132438D01*
X37209910Y-138132438D01*
X37230385Y-138145940D01*
X37293678Y-138155082D01*
X37402593Y-138160117D01*
X37527728Y-138161362D01*
X37648126Y-138160198D01*
X37747597Y-138157020D01*
X37816514Y-138152299D01*
X37845251Y-138146504D01*
X37845546Y-138145834D01*
X37837984Y-138109545D01*
X37817226Y-138036955D01*
X37786164Y-137936632D01*
X37747689Y-137817145D01*
X37704692Y-137687062D01*
X37660064Y-137554954D01*
X37616697Y-137429387D01*
X37577482Y-137318932D01*
X37545310Y-137232156D01*
X37523073Y-137177629D01*
X37513972Y-137163174D01*
X37501350Y-137192690D01*
X37477062Y-137261669D01*
X37444012Y-137360855D01*
X37405105Y-137480989D01*
X37363243Y-137612817D01*
X37321331Y-137747082D01*
X37282272Y-137874527D01*
X37248971Y-137985895D01*
X37224330Y-138071931D01*
X37211255Y-138123378D01*
X37209910Y-138132438D01*
X36566238Y-138132438D01*
X36905708Y-137042643D01*
X37250229Y-135936637D01*
G37*
G36*
X27872864Y-190982683D02*
G01*
X28140540Y-190975489D01*
X28408217Y-190968296D01*
X28434411Y-191051766D01*
X28494818Y-191244505D01*
X28562659Y-191461404D01*
X28636583Y-191698108D01*
X28715238Y-191950265D01*
X28797271Y-192213520D01*
X28881332Y-192483521D01*
X28966069Y-192755915D01*
X29050129Y-193026347D01*
X29132162Y-193290465D01*
X29210815Y-193543916D01*
X29284737Y-193782345D01*
X29352576Y-194001401D01*
X29412980Y-194196728D01*
X29464598Y-194363975D01*
X29506078Y-194498788D01*
X29536069Y-194596814D01*
X29553217Y-194653698D01*
X29556857Y-194666709D01*
X29533040Y-194672541D01*
X29468017Y-194677357D01*
X29371431Y-194680689D01*
X29252922Y-194682070D01*
X29240024Y-194682082D01*
X28923191Y-194682082D01*
X28887070Y-194561312D01*
X28864851Y-194488412D01*
X28831885Y-194381965D01*
X28792814Y-194256891D01*
X28756439Y-194141284D01*
X28661930Y-193842027D01*
X28138983Y-193848892D01*
X27616037Y-193855756D01*
X27488509Y-194268919D01*
X27360980Y-194682082D01*
X26714295Y-194682082D01*
X26828919Y-194320543D01*
X26870994Y-194188567D01*
X26909175Y-194070161D01*
X26940124Y-193975579D01*
X26960503Y-193915071D01*
X26965008Y-193902544D01*
X26973838Y-193863154D01*
X26951780Y-193845164D01*
X26905049Y-193838208D01*
X26823624Y-193830331D01*
X26823624Y-193220121D01*
X27129675Y-193207408D01*
X27822415Y-193207408D01*
X28464532Y-193207408D01*
X28449340Y-193146877D01*
X28436908Y-193104035D01*
X28411570Y-193021677D01*
X28376104Y-192908661D01*
X28333289Y-192773843D01*
X28287814Y-192632012D01*
X28141480Y-192177678D01*
X27999013Y-192622623D01*
X27952287Y-192769441D01*
X27910063Y-192903777D01*
X27875196Y-193016411D01*
X27850544Y-193098124D01*
X27839481Y-193137488D01*
X27822415Y-193207408D01*
X27129675Y-193207408D01*
X27179580Y-193205335D01*
X27872864Y-190982683D01*
G37*
G36*
X43559910Y-135904048D02*
G01*
X43858659Y-135911212D01*
X43865180Y-137773624D01*
X43871702Y-139636036D01*
X43261161Y-139636036D01*
X43261161Y-135896885D01*
X43559910Y-135904048D01*
G37*
G36*
X29594995Y-165938639D02*
G01*
X29897267Y-165944216D01*
X30070153Y-165951786D01*
X30219554Y-165966942D01*
X30332602Y-165988331D01*
X30342212Y-165990991D01*
X30596671Y-166089710D01*
X30825911Y-166229382D01*
X31025323Y-166405305D01*
X31190300Y-166612777D01*
X31316233Y-166847095D01*
X31387560Y-167057642D01*
X31423631Y-167228936D01*
X31435493Y-167380654D01*
X31423632Y-167536564D01*
X31400089Y-167667568D01*
X31327732Y-167900962D01*
X31213984Y-168125366D01*
X31066102Y-168330719D01*
X30891345Y-168506962D01*
X30696972Y-168644034D01*
X30694645Y-168645347D01*
X30620441Y-168688561D01*
X30567824Y-168722023D01*
X30548449Y-168738179D01*
X30568118Y-168756229D01*
X30619461Y-168792901D01*
X30684816Y-168836013D01*
X30899745Y-168945305D01*
X31140898Y-169017520D01*
X31292142Y-169041195D01*
X31463764Y-169059178D01*
X31463764Y-169671017D01*
X31254004Y-169655951D01*
X30988038Y-169614626D01*
X30715134Y-169530727D01*
X30447725Y-169408698D01*
X30275125Y-169306046D01*
X30192493Y-169251663D01*
X30192493Y-169663464D01*
X29581952Y-169663464D01*
X29587032Y-168212956D01*
X30192493Y-168212956D01*
X30256229Y-168188724D01*
X30327684Y-168158281D01*
X30391226Y-168127640D01*
X30488542Y-168059799D01*
X30590167Y-167960282D01*
X30681944Y-167844791D01*
X30748738Y-167731132D01*
X30785057Y-167641720D01*
X30805105Y-167555464D01*
X30812974Y-167450712D01*
X30813627Y-167387888D01*
X30800651Y-167211490D01*
X30758131Y-167063856D01*
X30679649Y-166928460D01*
X30596229Y-166828143D01*
X30522682Y-166759531D01*
X30433651Y-166692381D01*
X30342898Y-166635487D01*
X30264186Y-166597641D01*
X30218763Y-166586987D01*
X30210303Y-166612271D01*
X30203484Y-166688154D01*
X30198304Y-166814685D01*
X30194762Y-166991911D01*
X30192855Y-167219882D01*
X30192493Y-167399972D01*
X30192493Y-168212956D01*
X29587032Y-168212956D01*
X29588474Y-167801051D01*
X29594995Y-165938639D01*
G37*
G36*
X43871371Y-99590991D02*
G01*
X43261161Y-99590991D01*
X43261161Y-95878879D01*
X43871371Y-95878879D01*
X43871371Y-99590991D01*
G37*
G36*
X36803103Y-191580181D02*
G01*
X35480981Y-191580181D01*
X35480981Y-191783584D01*
X36828529Y-191783584D01*
X36828529Y-192393794D01*
X35473303Y-192393794D01*
X35488504Y-192717968D01*
X35500599Y-192899634D01*
X35518796Y-193042467D01*
X35544807Y-193158296D01*
X35558474Y-193201742D01*
X35653454Y-193404739D01*
X35790838Y-193593747D01*
X35962441Y-193759906D01*
X36160075Y-193894354D01*
X36233110Y-193931914D01*
X36339575Y-193974466D01*
X36467993Y-194014469D01*
X36599474Y-194047025D01*
X36715125Y-194067239D01*
X36771321Y-194071431D01*
X36795428Y-194073529D01*
X36811588Y-194085039D01*
X36821390Y-194114441D01*
X36826422Y-194170220D01*
X36828272Y-194260858D01*
X36828529Y-194376977D01*
X36828529Y-194682082D01*
X36656907Y-194680683D01*
X36539078Y-194672692D01*
X36404892Y-194653310D01*
X36300731Y-194630924D01*
X36005033Y-194528582D01*
X35736641Y-194384419D01*
X35498224Y-194200255D01*
X35292446Y-193977909D01*
X35239299Y-193906607D01*
X35118489Y-193720396D01*
X35026645Y-193538844D01*
X34960040Y-193350051D01*
X34914945Y-193142115D01*
X34887633Y-192903136D01*
X34878928Y-192756107D01*
X34862855Y-192393794D01*
X34667367Y-192393794D01*
X34667367Y-191783584D01*
X34870771Y-191783584D01*
X34870771Y-190969970D01*
X36803103Y-190969970D01*
X36803103Y-191580181D01*
G37*
G36*
X51912162Y-10806062D02*
G01*
X52214326Y-10807845D01*
X52472003Y-10813116D01*
X52691491Y-10822721D01*
X52879086Y-10837504D01*
X53041084Y-10858311D01*
X53183780Y-10885987D01*
X53313472Y-10921377D01*
X53436456Y-10965327D01*
X53559028Y-11018681D01*
X53583884Y-11030477D01*
X53748806Y-11129306D01*
X53912449Y-11262211D01*
X54060489Y-11415458D01*
X54178602Y-11575313D01*
X54210984Y-11631732D01*
X54303861Y-11833028D01*
X54364985Y-12029543D01*
X54398448Y-12238669D01*
X54408347Y-12470771D01*
X54391470Y-12756566D01*
X54338966Y-13010595D01*
X54248030Y-13239937D01*
X54115854Y-13451668D01*
X53939631Y-13652864D01*
X53939441Y-13653053D01*
X53719863Y-13844151D01*
X53486965Y-13990771D01*
X53232031Y-14097327D01*
X52946342Y-14168231D01*
X52908907Y-14174664D01*
X52833288Y-14183774D01*
X52721969Y-14192779D01*
X52582374Y-14201457D01*
X52421929Y-14209584D01*
X52248056Y-14216939D01*
X52068181Y-14223298D01*
X51889726Y-14228440D01*
X51720116Y-14232141D01*
X51566776Y-14234180D01*
X51437129Y-14234334D01*
X51338599Y-14232380D01*
X51278611Y-14228096D01*
X51263814Y-14223968D01*
X51260569Y-14195764D01*
X51257497Y-14120938D01*
X51255522Y-14039727D01*
X52490591Y-14039727D01*
X52700350Y-14021238D01*
X52821682Y-14007560D01*
X52944441Y-13988884D01*
X53043573Y-13969063D01*
X53049950Y-13967488D01*
X53314763Y-13875498D01*
X53553517Y-13741458D01*
X53762366Y-13569061D01*
X53937464Y-13362001D01*
X54074965Y-13123970D01*
X54158534Y-12903003D01*
X54192701Y-12731471D01*
X54205546Y-12532109D01*
X54197553Y-12323025D01*
X54169204Y-12122328D01*
X54134066Y-11985694D01*
X54034983Y-11742837D01*
X53905906Y-11536471D01*
X53744841Y-11365248D01*
X53549791Y-11227820D01*
X53318761Y-11122838D01*
X53049757Y-11048953D01*
X52740783Y-11004817D01*
X52674925Y-10999506D01*
X52490591Y-10986342D01*
X52490591Y-14039727D01*
X51255522Y-14039727D01*
X51254647Y-14003721D01*
X51252064Y-13848341D01*
X51249797Y-13659028D01*
X51247890Y-13440013D01*
X51246393Y-13195523D01*
X51245351Y-12929789D01*
X51244812Y-12647040D01*
X51244745Y-12504672D01*
X51244745Y-10805406D01*
X51912162Y-10806062D01*
G37*
G36*
X38292718Y-200978686D02*
G01*
X38461176Y-200990520D01*
X38605777Y-201013872D01*
X38739832Y-201051457D01*
X38876655Y-201105988D01*
X38988753Y-201159468D01*
X39125865Y-201237023D01*
X39213971Y-201308218D01*
X39254324Y-201374431D01*
X39248179Y-201437040D01*
X39245643Y-201442071D01*
X39197871Y-201487754D01*
X39128281Y-201487925D01*
X39037520Y-201442688D01*
X38978769Y-201398456D01*
X38870778Y-201326215D01*
X38731604Y-201258291D01*
X38651827Y-201227504D01*
X38555939Y-201195688D01*
X38473759Y-201174556D01*
X38389883Y-201161943D01*
X38288908Y-201155686D01*
X38155429Y-201153620D01*
X38125225Y-201153523D01*
X37807408Y-201152853D01*
X37807408Y-204254755D01*
X38079471Y-204261959D01*
X38348014Y-204254107D01*
X38581615Y-204214045D01*
X38786152Y-204139892D01*
X38967501Y-204029765D01*
X39067933Y-203945350D01*
X39159694Y-203872477D01*
X39230533Y-203845501D01*
X39281209Y-203864323D01*
X39308316Y-203914057D01*
X39304413Y-203984625D01*
X39251093Y-204063326D01*
X39148991Y-204149339D01*
X39101379Y-204181319D01*
X38876978Y-204298146D01*
X38621333Y-204384812D01*
X38345722Y-204439040D01*
X38061425Y-204458554D01*
X37800911Y-204443771D01*
X37493938Y-204383713D01*
X37214688Y-204281715D01*
X36964129Y-204138227D01*
X36743227Y-203953701D01*
X36739540Y-203950018D01*
X36561393Y-203747023D01*
X36425562Y-203534506D01*
X36329235Y-203305207D01*
X36269601Y-203051865D01*
X36243849Y-202767217D01*
X36242306Y-202665666D01*
X36259190Y-202387756D01*
X36311574Y-202140934D01*
X36402915Y-201916804D01*
X36536669Y-201706971D01*
X36716291Y-201503038D01*
X36724131Y-201495230D01*
X36841710Y-201383545D01*
X36943366Y-201300079D01*
X37044771Y-201233204D01*
X37159059Y-201172534D01*
X37316331Y-201099857D01*
X37455574Y-201047095D01*
X37590825Y-201011271D01*
X37736123Y-200989405D01*
X37905506Y-200978521D01*
X38087087Y-200975658D01*
X38292718Y-200978686D01*
G37*
G36*
X58313013Y-169053254D02*
G01*
X59458771Y-169053254D01*
X59451608Y-169352002D01*
X59444445Y-169650751D01*
X58573459Y-169657441D01*
X57702473Y-169664132D01*
X57708994Y-167801385D01*
X57715516Y-165938639D01*
X58014264Y-165931476D01*
X58313013Y-165924313D01*
X58313013Y-169053254D01*
G37*
G36*
X30034598Y-190969970D02*
G01*
X30213024Y-190974641D01*
X30366751Y-190987912D01*
X30482946Y-191008672D01*
X30483555Y-191008830D01*
X30729041Y-191098317D01*
X30956597Y-191231438D01*
X31158702Y-191402054D01*
X31327836Y-191604024D01*
X31435194Y-191785761D01*
X31535967Y-192040047D01*
X31586261Y-192291662D01*
X31586076Y-192542801D01*
X31535409Y-192795661D01*
X31434560Y-193051821D01*
X31350966Y-193189997D01*
X31234800Y-193336578D01*
X31099170Y-193477622D01*
X30957179Y-193599185D01*
X30854145Y-193669335D01*
X30696665Y-193762496D01*
X30832317Y-193854256D01*
X31008579Y-193949146D01*
X31215466Y-194019932D01*
X31436271Y-194061109D01*
X31470120Y-194064440D01*
X31641742Y-194079248D01*
X31641742Y-194682082D01*
X31482833Y-194681641D01*
X31369938Y-194675518D01*
X31240138Y-194660102D01*
X31145946Y-194643557D01*
X31023271Y-194609144D01*
X30878779Y-194555744D01*
X30729017Y-194490695D01*
X30590530Y-194421338D01*
X30479863Y-194355010D01*
X30454800Y-194336982D01*
X30400300Y-194297928D01*
X30364184Y-194276611D01*
X30359454Y-194275276D01*
X30352762Y-194298693D01*
X30347723Y-194360921D01*
X30345190Y-194449929D01*
X30345045Y-194478679D01*
X30345045Y-194682082D01*
X29734835Y-194682082D01*
X29734835Y-193236260D01*
X30345045Y-193236260D01*
X30402252Y-193219194D01*
X30459407Y-193196088D01*
X30534901Y-193158361D01*
X30563288Y-193142611D01*
X30717895Y-193026083D01*
X30839556Y-192877348D01*
X30925061Y-192705326D01*
X30971197Y-192518932D01*
X30974754Y-192327086D01*
X30932521Y-192138706D01*
X30928614Y-192128113D01*
X30841852Y-191961811D01*
X30718977Y-191815095D01*
X30570620Y-191698232D01*
X30407414Y-191621488D01*
X30402252Y-191619868D01*
X30345045Y-191602179D01*
X30345045Y-193236260D01*
X29734835Y-193236260D01*
X29734835Y-190969970D01*
X30034598Y-190969970D01*
G37*
G36*
X35412888Y-141288689D02*
G01*
X35600136Y-141291529D01*
X35746497Y-141301599D01*
X35861699Y-141321229D01*
X35955470Y-141352745D01*
X36037537Y-141398475D01*
X36112125Y-141456008D01*
X36220985Y-141579995D01*
X36300953Y-141733837D01*
X36347506Y-141903122D01*
X36356126Y-142073443D01*
X36338933Y-142179074D01*
X36334580Y-142220965D01*
X36353979Y-142255633D01*
X36406277Y-142296088D01*
X36433630Y-142313759D01*
X36551695Y-142404401D01*
X36676115Y-142526489D01*
X36793275Y-142664700D01*
X36889562Y-142803715D01*
X36924159Y-142865812D01*
X37018371Y-143106297D01*
X37065243Y-143353493D01*
X37066699Y-143601500D01*
X37024661Y-143844418D01*
X36941051Y-144076347D01*
X36817792Y-144291386D01*
X36656808Y-144483636D01*
X36460020Y-144647195D01*
X36315179Y-144734615D01*
X36182975Y-144796121D01*
X36046989Y-144841253D01*
X35896555Y-144871976D01*
X35721007Y-144890251D01*
X35509678Y-144898043D01*
X35423774Y-144898658D01*
X35048749Y-144899099D01*
X35048749Y-144320089D01*
X35633534Y-144320089D01*
X35754304Y-144303274D01*
X35842802Y-144282602D01*
X35949774Y-144246033D01*
X36033319Y-144210133D01*
X36198203Y-144103815D01*
X36327461Y-143963707D01*
X36417707Y-143795343D01*
X36465555Y-143604258D01*
X36472573Y-143492245D01*
X36459542Y-143320529D01*
X36416242Y-143175768D01*
X36336357Y-143043052D01*
X36233030Y-142926630D01*
X36084220Y-142800768D01*
X35934967Y-142722502D01*
X35779117Y-142688898D01*
X35730706Y-142687087D01*
X35633534Y-142687087D01*
X35633534Y-144320089D01*
X35048749Y-144320089D01*
X35048749Y-141976944D01*
X35633534Y-141976944D01*
X35636630Y-142042593D01*
X35651058Y-142070366D01*
X35684524Y-142073110D01*
X35690741Y-142072289D01*
X35741417Y-142044014D01*
X35756719Y-142002026D01*
X35745123Y-141935317D01*
X35720078Y-141906680D01*
X35670822Y-141878115D01*
X35644316Y-141887513D01*
X35634315Y-141939946D01*
X35633534Y-141976944D01*
X35048749Y-141976944D01*
X35048749Y-141288689D01*
X35412888Y-141288689D01*
G37*
G36*
X65152453Y-171672072D02*
G01*
X65152453Y-196690691D01*
X42117017Y-196690691D01*
X42117017Y-192854850D01*
X49588364Y-192854850D01*
X49615203Y-193145310D01*
X49690493Y-193430632D01*
X49814214Y-193707274D01*
X49978380Y-193961194D01*
X50129176Y-194128948D01*
X50317424Y-194287999D01*
X50529721Y-194429734D01*
X50752670Y-194545541D01*
X50972868Y-194626811D01*
X51041341Y-194644291D01*
X51217954Y-194669564D01*
X51422307Y-194675928D01*
X51635328Y-194664336D01*
X51837949Y-194635745D01*
X51994795Y-194596544D01*
X52253918Y-194488670D01*
X52500966Y-194339448D01*
X52724280Y-194157251D01*
X52912200Y-193950453D01*
X52932993Y-193922784D01*
X53032093Y-193768654D01*
X53125958Y-193588567D01*
X53203482Y-193405410D01*
X53243163Y-193283684D01*
X53271126Y-193136515D01*
X53286352Y-192958382D01*
X53288838Y-192767550D01*
X53278586Y-192582283D01*
X53255594Y-192420848D01*
X53248112Y-192389179D01*
X53482182Y-192389179D01*
X53482241Y-192710012D01*
X53482679Y-192984345D01*
X53483887Y-193216530D01*
X53486259Y-193410921D01*
X53490187Y-193571868D01*
X53496062Y-193703724D01*
X53504278Y-193810839D01*
X53515226Y-193897567D01*
X53529298Y-193968258D01*
X53546887Y-194027266D01*
X53568385Y-194078941D01*
X53594184Y-194127635D01*
X53624677Y-194177701D01*
X53646464Y-194211889D01*
X53775848Y-194372843D01*
X53937858Y-194509465D01*
X54119299Y-194612047D01*
X54254675Y-194659407D01*
X54318012Y-194668294D01*
X54413406Y-194673257D01*
X54522154Y-194673420D01*
X54542129Y-194672858D01*
X54659068Y-194665881D01*
X54749860Y-194650121D01*
X54838239Y-194619580D01*
X54939501Y-194572441D01*
X55133339Y-194450814D01*
X55288066Y-194296736D01*
X55403942Y-194109885D01*
X55476756Y-193907622D01*
X55485546Y-193867364D01*
X55492969Y-193816796D01*
X55499132Y-193751656D01*
X55504146Y-193667686D01*
X55508118Y-193560626D01*
X55511158Y-193426217D01*
X55513374Y-193260198D01*
X55514875Y-193058310D01*
X55515771Y-192816294D01*
X55516169Y-192529890D01*
X55516216Y-192363027D01*
X55516216Y-191580181D01*
X55694194Y-191580181D01*
X56380681Y-191580181D01*
X56380681Y-194682082D01*
X56990891Y-194682082D01*
X56990891Y-191580181D01*
X57677377Y-191580181D01*
X57677377Y-190969970D01*
X55694194Y-190969970D01*
X55694194Y-191580181D01*
X55516216Y-191580181D01*
X55516216Y-190969970D01*
X54906006Y-190969970D01*
X54906006Y-193784673D01*
X54848194Y-193870460D01*
X54750865Y-193977368D01*
X54635557Y-194044974D01*
X54511525Y-194073124D01*
X54388027Y-194061665D01*
X54274320Y-194010442D01*
X54179660Y-193919301D01*
X54155089Y-193881996D01*
X54092393Y-193775012D01*
X54092393Y-190969970D01*
X53482182Y-190969970D01*
X53482182Y-192389179D01*
X53248112Y-192389179D01*
X53243195Y-192368369D01*
X53141129Y-192089042D01*
X52995130Y-191828888D01*
X52810160Y-191593123D01*
X52591183Y-191386963D01*
X52343163Y-191215623D01*
X52071063Y-191084317D01*
X51994795Y-191056637D01*
X51781186Y-191003297D01*
X51543468Y-190975842D01*
X51301948Y-190975399D01*
X51076930Y-191003094D01*
X51066767Y-191005176D01*
X50838807Y-191073063D01*
X50608092Y-191178388D01*
X50386771Y-191313349D01*
X50186989Y-191470141D01*
X50020893Y-191640960D01*
X49965911Y-191712448D01*
X49798750Y-191988049D01*
X49680118Y-192272678D01*
X49609996Y-192562792D01*
X49588364Y-192854850D01*
X42117017Y-192854850D01*
X42117017Y-182709459D01*
X46647413Y-182709459D01*
X46650246Y-182868706D01*
X46666504Y-183246895D01*
X46697064Y-183591230D01*
X46744362Y-183917303D01*
X46810833Y-184240706D01*
X46898911Y-184577030D01*
X46937423Y-184707733D01*
X47130559Y-185259505D01*
X47369136Y-185791069D01*
X47650854Y-186299734D01*
X47973415Y-186782810D01*
X48334521Y-187237607D01*
X48731874Y-187661433D01*
X49163175Y-188051600D01*
X49626126Y-188405415D01*
X50118429Y-188720189D01*
X50570971Y-188961235D01*
X51108697Y-189195181D01*
X51661929Y-189383185D01*
X52226394Y-189524425D01*
X52797819Y-189618079D01*
X53371930Y-189663323D01*
X53944455Y-189659336D01*
X54133195Y-189647005D01*
X54740307Y-189573832D01*
X55329452Y-189453146D01*
X55900130Y-189285143D01*
X56451842Y-189070022D01*
X56984087Y-188807983D01*
X57496365Y-188499224D01*
X57988177Y-188143943D01*
X58058759Y-188087773D01*
X58189675Y-187975855D01*
X58342669Y-187834602D01*
X58507745Y-187674137D01*
X58674906Y-187504582D01*
X58834153Y-187336061D01*
X58975490Y-187178696D01*
X59080688Y-187053002D01*
X59430086Y-186574645D01*
X59737773Y-186070516D01*
X60002131Y-185544404D01*
X60221540Y-185000093D01*
X60394382Y-184441372D01*
X60519039Y-183872027D01*
X60562564Y-183586304D01*
X60614532Y-182994748D01*
X60616758Y-182406493D01*
X60570174Y-181824318D01*
X60475713Y-181251000D01*
X60334310Y-180689319D01*
X60146898Y-180142053D01*
X59914410Y-179611981D01*
X59637781Y-179101883D01*
X59317942Y-178614535D01*
X58955829Y-178152718D01*
X58611192Y-177777972D01*
X58167063Y-177363876D01*
X57697911Y-176993952D01*
X57204674Y-176668648D01*
X56688289Y-176388411D01*
X56149691Y-176153687D01*
X55589818Y-175964925D01*
X55009607Y-175822570D01*
X54409994Y-175727070D01*
X54284420Y-175713285D01*
X54089334Y-175699504D01*
X53857735Y-175692865D01*
X53603287Y-175692975D01*
X53339653Y-175699437D01*
X53080496Y-175711859D01*
X52839481Y-175729844D01*
X52630270Y-175752999D01*
X52562205Y-175763031D01*
X51976526Y-175881992D01*
X51409937Y-176046712D01*
X50864525Y-176255327D01*
X50342382Y-176505976D01*
X49845595Y-176796794D01*
X49376254Y-177125921D01*
X48936448Y-177491492D01*
X48528267Y-177891646D01*
X48153799Y-178324520D01*
X47815133Y-178788251D01*
X47514359Y-179280976D01*
X47253567Y-179800834D01*
X47034844Y-180345960D01*
X46884276Y-180825226D01*
X46791287Y-181198158D01*
X46722663Y-181559452D01*
X46676847Y-181922703D01*
X46652283Y-182301506D01*
X46647413Y-182709459D01*
X42117017Y-182709459D01*
X42117017Y-171672072D01*
X65152453Y-171672072D01*
G37*
G36*
X39494879Y-10788670D02*
G01*
X39739784Y-10835080D01*
X39963966Y-10914594D01*
X40048494Y-10955292D01*
X40172467Y-11024367D01*
X40257472Y-11084733D01*
X40312808Y-11143683D01*
X40334844Y-11179848D01*
X40349572Y-11228742D01*
X40328225Y-11271088D01*
X40312395Y-11287906D01*
X40267608Y-11325418D01*
X40238055Y-11339340D01*
X40207761Y-11325101D01*
X40149267Y-11287575D01*
X40074626Y-11234549D01*
X40066433Y-11228467D01*
X39983857Y-11168680D01*
X39909599Y-11117980D01*
X39859569Y-11087224D01*
X39859138Y-11086998D01*
X39723891Y-11032173D01*
X39556679Y-10988029D01*
X39375837Y-10957754D01*
X39199696Y-10944543D01*
X39067176Y-10949131D01*
X38913414Y-10965202D01*
X38913414Y-14085286D01*
X39061899Y-14085286D01*
X39213688Y-14072692D01*
X39386708Y-14038599D01*
X39559117Y-13988539D01*
X39709074Y-13928043D01*
X39735278Y-13914737D01*
X39837072Y-13847597D01*
X39954439Y-13749943D01*
X40075281Y-13633923D01*
X40187499Y-13511687D01*
X40278996Y-13395383D01*
X40325042Y-13322523D01*
X40358176Y-13257167D01*
X40380776Y-13197292D01*
X40395492Y-13129650D01*
X40404975Y-13040990D01*
X40411874Y-12918063D01*
X40413514Y-12880245D01*
X40420241Y-12747264D01*
X40428250Y-12656303D01*
X40439068Y-12598529D01*
X40454226Y-12565112D01*
X40470721Y-12549844D01*
X40525550Y-12535522D01*
X40559710Y-12549949D01*
X40571994Y-12561022D01*
X40581799Y-12580592D01*
X40589400Y-12613947D01*
X40595073Y-12666376D01*
X40599096Y-12743171D01*
X40601744Y-12849619D01*
X40603294Y-12991011D01*
X40604022Y-13172637D01*
X40604204Y-13399786D01*
X40604204Y-14225126D01*
X40426226Y-14225126D01*
X40413514Y-13883342D01*
X40400801Y-13541559D01*
X40299099Y-13675790D01*
X40183244Y-13804119D01*
X40036586Y-13930408D01*
X39877584Y-14039994D01*
X39762885Y-14101688D01*
X39527541Y-14187070D01*
X39266571Y-14241039D01*
X38995559Y-14261973D01*
X38730088Y-14248251D01*
X38586210Y-14224083D01*
X38324807Y-14142421D01*
X38087186Y-14018207D01*
X37876568Y-13855399D01*
X37696176Y-13657952D01*
X37549231Y-13429825D01*
X37438953Y-13174973D01*
X37368563Y-12897355D01*
X37345268Y-12699754D01*
X37349517Y-12399758D01*
X37400392Y-12111557D01*
X37495208Y-11839837D01*
X37631279Y-11589286D01*
X37805919Y-11364593D01*
X38016443Y-11170444D01*
X38260166Y-11011528D01*
X38333919Y-10974019D01*
X38538492Y-10884463D01*
X38724139Y-10824200D01*
X38910054Y-10788868D01*
X39115432Y-10774106D01*
X39218519Y-10773009D01*
X39494879Y-10788670D01*
G37*
G36*
X56108338Y-165956861D02*
G01*
X56378114Y-165949657D01*
X56427592Y-166109413D01*
X56443475Y-166160518D01*
X56473129Y-166255747D01*
X56515176Y-166390681D01*
X56568238Y-166560905D01*
X56630938Y-166761998D01*
X56701899Y-166989544D01*
X56779743Y-167239125D01*
X56863092Y-167506322D01*
X56950568Y-167786718D01*
X57000947Y-167948187D01*
X57088602Y-168229374D01*
X57171661Y-168496314D01*
X57248900Y-168745044D01*
X57319097Y-168971601D01*
X57381029Y-169172025D01*
X57433473Y-169342353D01*
X57475205Y-169478623D01*
X57505003Y-169576873D01*
X57521643Y-169633140D01*
X57524825Y-169645334D01*
X57501017Y-169652247D01*
X57436057Y-169657945D01*
X57339640Y-169661868D01*
X57221458Y-169663455D01*
X57211428Y-169663464D01*
X56898030Y-169663464D01*
X56764944Y-169243433D01*
X56631858Y-168823403D01*
X56106998Y-168830270D01*
X55582137Y-168837138D01*
X55327725Y-169663464D01*
X54681913Y-169663464D01*
X54767615Y-169390141D01*
X54808379Y-169261481D01*
X54849555Y-169133793D01*
X54885340Y-169024968D01*
X54903211Y-168972092D01*
X54953106Y-168827367D01*
X54872349Y-168819540D01*
X54791592Y-168811712D01*
X54784453Y-168500251D01*
X54777314Y-168188789D01*
X54962431Y-168188729D01*
X55147548Y-168188668D01*
X55156218Y-168160755D01*
X55795896Y-168160755D01*
X55819525Y-168174171D01*
X55891105Y-168183208D01*
X56011674Y-168187957D01*
X56113714Y-168188789D01*
X56234111Y-168187613D01*
X56333583Y-168184402D01*
X56402500Y-168179630D01*
X56431237Y-168173774D01*
X56431532Y-168173096D01*
X56424189Y-168144242D01*
X56404049Y-168076349D01*
X56373943Y-167978317D01*
X56336703Y-167859044D01*
X56295162Y-167727429D01*
X56252151Y-167592371D01*
X56210503Y-167462767D01*
X56173048Y-167347517D01*
X56142620Y-167255519D01*
X56122049Y-167195672D01*
X56114447Y-167176743D01*
X56104527Y-167196715D01*
X56082384Y-167256600D01*
X56050823Y-167347731D01*
X56012650Y-167461442D01*
X55970671Y-167589068D01*
X55927691Y-167721940D01*
X55886516Y-167851394D01*
X55849951Y-167968762D01*
X55820801Y-168065378D01*
X55801873Y-168132576D01*
X55795896Y-168160755D01*
X55156218Y-168160755D01*
X55838562Y-165964064D01*
X56108338Y-165956861D01*
G37*
G36*
X32831166Y-142643137D02*
G01*
X32824024Y-144126339D01*
X32729067Y-144318432D01*
X32605973Y-144515155D01*
X32451922Y-144672879D01*
X32270197Y-144789407D01*
X32064079Y-144862544D01*
X31876908Y-144888717D01*
X31744079Y-144889311D01*
X31624299Y-144878479D01*
X31563669Y-144865974D01*
X31383264Y-144791711D01*
X31209876Y-144677901D01*
X31057352Y-144535390D01*
X30941839Y-144378971D01*
X30913012Y-144328198D01*
X30888453Y-144279011D01*
X30867842Y-144227072D01*
X30850860Y-144168045D01*
X30837189Y-144097592D01*
X30826509Y-144011377D01*
X30818500Y-143905062D01*
X30812845Y-143774310D01*
X30809224Y-143614785D01*
X30807317Y-143422148D01*
X30806806Y-143192064D01*
X30807371Y-142920194D01*
X30808695Y-142602203D01*
X30808840Y-142571199D01*
X30815416Y-141174275D01*
X31114164Y-141167111D01*
X31412913Y-141159948D01*
X31412913Y-143947584D01*
X31470120Y-144059541D01*
X31542151Y-144171310D01*
X31627107Y-144239515D01*
X31736722Y-144271426D01*
X31819720Y-144276177D01*
X31945924Y-144263504D01*
X32044928Y-144220020D01*
X32132737Y-144137526D01*
X32161392Y-144101139D01*
X32172619Y-144084801D01*
X32182168Y-144065516D01*
X32190218Y-144039172D01*
X32196948Y-144001656D01*
X32202536Y-143948855D01*
X32207161Y-143876655D01*
X32211002Y-143780943D01*
X32214237Y-143657607D01*
X32217046Y-143502533D01*
X32219608Y-143311608D01*
X32222100Y-143080719D01*
X32224702Y-142805752D01*
X32226527Y-142602610D01*
X32239239Y-141174275D01*
X32838307Y-141159935D01*
X32831166Y-142643137D01*
G37*
G36*
X36333549Y-53831296D02*
G01*
X36358634Y-53867277D01*
X36368948Y-53937520D01*
X36370959Y-54048500D01*
X36370871Y-54130331D01*
X36370077Y-54260535D01*
X36366960Y-54348019D01*
X36360413Y-54400900D01*
X36349332Y-54427293D01*
X36332611Y-54435315D01*
X36329326Y-54435436D01*
X36224717Y-54453428D01*
X36111802Y-54500429D01*
X36014336Y-54565978D01*
X35997666Y-54581507D01*
X35940944Y-54649135D01*
X35916741Y-54715000D01*
X35913213Y-54768485D01*
X35920129Y-54849652D01*
X35937163Y-54917678D01*
X35941101Y-54926547D01*
X35967524Y-54961291D01*
X36024358Y-55024733D01*
X36105383Y-55110308D01*
X36204376Y-55211445D01*
X36315114Y-55321580D01*
X36318931Y-55325326D01*
X36448829Y-55454252D01*
X36547501Y-55556487D01*
X36621290Y-55639610D01*
X36676536Y-55711199D01*
X36719582Y-55778835D01*
X36755057Y-55846547D01*
X36792465Y-55926465D01*
X36817118Y-55991375D01*
X36831668Y-56055748D01*
X36838766Y-56134055D01*
X36841063Y-56240769D01*
X36841241Y-56316917D01*
X36840331Y-56446588D01*
X36835960Y-56539711D01*
X36825670Y-56610580D01*
X36807001Y-56673487D01*
X36777494Y-56742727D01*
X36762497Y-56774575D01*
X36632791Y-56990571D01*
X36466194Y-57177767D01*
X36269472Y-57331307D01*
X36049391Y-57446334D01*
X35812717Y-57517993D01*
X35703423Y-57534709D01*
X35530344Y-57553203D01*
X35537444Y-57246798D01*
X35544545Y-56940393D01*
X35658959Y-56924055D01*
X35842374Y-56875568D01*
X36000126Y-56789016D01*
X36126514Y-56669506D01*
X36215842Y-56522147D01*
X36256675Y-56388258D01*
X36262019Y-56318663D01*
X36249244Y-56247393D01*
X36214874Y-56168951D01*
X36155428Y-56077838D01*
X36067428Y-55968555D01*
X35947395Y-55835603D01*
X35827891Y-55710484D01*
X35672996Y-55547336D01*
X35552221Y-55410323D01*
X35461309Y-55292219D01*
X35396002Y-55185799D01*
X35352045Y-55083835D01*
X35325180Y-54979100D01*
X35311149Y-54864370D01*
X35308944Y-54829530D01*
X35306063Y-54707252D01*
X35314647Y-54612830D01*
X35337514Y-54524006D01*
X35353184Y-54480015D01*
X35443692Y-54308985D01*
X35576477Y-54154597D01*
X35744064Y-54022974D01*
X35938980Y-53920240D01*
X36104961Y-53864157D01*
X36213182Y-53836212D01*
X36287222Y-53823100D01*
X36333549Y-53831296D01*
G37*
G36*
X32106770Y-190969970D02*
G01*
X32265954Y-190974188D01*
X32409755Y-190985905D01*
X32522102Y-191003715D01*
X32538988Y-191007782D01*
X32781284Y-191095166D01*
X33006104Y-191223529D01*
X33207099Y-191386690D01*
X33377919Y-191578469D01*
X33512214Y-191792686D01*
X33603633Y-192023159D01*
X33611419Y-192051607D01*
X33636973Y-192195408D01*
X33648388Y-192363015D01*
X33645710Y-192534649D01*
X33628984Y-192690529D01*
X33609763Y-192776917D01*
X33525126Y-192994582D01*
X33405111Y-193203493D01*
X33257828Y-193393273D01*
X33091388Y-193553549D01*
X32913902Y-193673946D01*
X32904603Y-193678879D01*
X32760897Y-193754054D01*
X32817886Y-193799483D01*
X32954628Y-193887681D01*
X33123435Y-193965372D01*
X33305674Y-194026019D01*
X33482715Y-194063084D01*
X33593143Y-194071496D01*
X33701201Y-194071872D01*
X33701201Y-194682082D01*
X33540003Y-194682082D01*
X33341045Y-194664439D01*
X33122952Y-194614978D01*
X32901449Y-194538907D01*
X32692259Y-194441434D01*
X32546640Y-194353131D01*
X32481174Y-194309789D01*
X32433744Y-194281523D01*
X32418993Y-194275276D01*
X32412264Y-194298692D01*
X32407198Y-194360921D01*
X32404650Y-194449929D01*
X32404505Y-194478679D01*
X32404505Y-194682082D01*
X31819720Y-194682082D01*
X31819720Y-193236260D01*
X32404505Y-193236260D01*
X32461712Y-193218572D01*
X32522825Y-193195049D01*
X32597595Y-193160592D01*
X32607908Y-193155393D01*
X32706863Y-193087728D01*
X32810455Y-192989039D01*
X32903732Y-192875227D01*
X32965417Y-192775176D01*
X33010997Y-192644167D01*
X33034814Y-192486863D01*
X33035674Y-192323473D01*
X33012380Y-192174209D01*
X33002871Y-192142156D01*
X32922084Y-191975236D01*
X32801419Y-191826950D01*
X32651086Y-191707158D01*
X32481297Y-191625724D01*
X32461712Y-191619483D01*
X32404505Y-191602179D01*
X32404505Y-193236260D01*
X31819720Y-193236260D01*
X31819720Y-190969970D01*
X32106770Y-190969970D01*
G37*
G36*
X22895396Y-191580181D02*
G01*
X22799036Y-191580181D01*
X22719918Y-191586712D01*
X22618958Y-191603513D01*
X22551138Y-191618774D01*
X22305588Y-191705536D01*
X22084349Y-191832514D01*
X21893061Y-191995204D01*
X21737365Y-192189104D01*
X21656235Y-192333254D01*
X21614920Y-192421893D01*
X21587623Y-192491301D01*
X21571441Y-192556429D01*
X21563473Y-192632226D01*
X21560815Y-192733641D01*
X21560561Y-192826026D01*
X21561250Y-192953736D01*
X21565255Y-193045546D01*
X21575476Y-193116405D01*
X21594817Y-193181264D01*
X21626180Y-193255073D01*
X21656235Y-193318799D01*
X21785115Y-193530977D01*
X21953340Y-193714943D01*
X22155269Y-193866193D01*
X22385265Y-193980225D01*
X22551138Y-194033279D01*
X22651536Y-194054695D01*
X22748511Y-194068709D01*
X22799036Y-194071872D01*
X22895396Y-194071872D01*
X22895396Y-194682082D01*
X22723774Y-194680061D01*
X22603720Y-194673397D01*
X22475841Y-194658367D01*
X22399600Y-194644767D01*
X22116505Y-194557590D01*
X21851730Y-194425773D01*
X21610182Y-194253725D01*
X21396766Y-194045856D01*
X21216389Y-193806575D01*
X21073958Y-193540292D01*
X21021115Y-193405910D01*
X20977934Y-193239783D01*
X20950328Y-193043203D01*
X20939175Y-192834397D01*
X20945353Y-192631594D01*
X20969737Y-192453021D01*
X20974267Y-192432635D01*
X21063341Y-192160893D01*
X21196399Y-191906169D01*
X21368150Y-191672929D01*
X21573299Y-191465639D01*
X21806555Y-191288766D01*
X22062624Y-191146777D01*
X22336213Y-191044138D01*
X22622030Y-190985317D01*
X22698348Y-190977700D01*
X22895396Y-190962433D01*
X22895396Y-191580181D01*
G37*
G36*
X47636578Y-13845878D02*
G01*
X47441953Y-13643193D01*
X47280785Y-13409590D01*
X47157842Y-13149532D01*
X47125495Y-13055556D01*
X47084861Y-12880010D01*
X47060144Y-12675233D01*
X47052130Y-12460542D01*
X47061606Y-12255253D01*
X47086287Y-12092009D01*
X47171427Y-11823196D01*
X47300332Y-11574609D01*
X47468354Y-11350909D01*
X47670849Y-11156757D01*
X47903171Y-10996813D01*
X48160673Y-10875737D01*
X48358959Y-10815271D01*
X48537530Y-10785911D01*
X48744451Y-10773263D01*
X48960136Y-10777067D01*
X49165001Y-10797064D01*
X49321408Y-10828016D01*
X49594499Y-10925078D01*
X49838275Y-11061853D01*
X50050392Y-11234947D01*
X50228506Y-11440963D01*
X50370271Y-11676507D01*
X50473343Y-11938182D01*
X50535378Y-12222593D01*
X50554032Y-12526344D01*
X50551417Y-12609446D01*
X50512815Y-12914373D01*
X50430923Y-13195399D01*
X50308710Y-13449739D01*
X50149147Y-13674604D01*
X49955203Y-13867208D01*
X49729849Y-14024765D01*
X49476055Y-14144488D01*
X49196790Y-14223590D01*
X48895024Y-14259285D01*
X48791191Y-14261064D01*
X48659130Y-14256416D01*
X48524398Y-14245585D01*
X48409266Y-14230558D01*
X48373503Y-14223778D01*
X48107122Y-14140634D01*
X47999760Y-14085286D01*
X48575075Y-14085286D01*
X48799837Y-14085286D01*
X49007628Y-14073057D01*
X49204784Y-14039081D01*
X49220982Y-14035059D01*
X49457560Y-13956100D01*
X49665237Y-13844684D01*
X49858065Y-13692803D01*
X49912137Y-13641114D01*
X50089445Y-13430313D01*
X50224446Y-13191482D01*
X50317426Y-12924111D01*
X50319343Y-12916548D01*
X50346409Y-12750529D01*
X50355152Y-12555638D01*
X50346485Y-12350073D01*
X50321327Y-12152033D01*
X50280590Y-11979715D01*
X50270720Y-11950124D01*
X50155167Y-11695869D01*
X50001742Y-11474056D01*
X49813828Y-11287399D01*
X49594807Y-11138613D01*
X49348064Y-11030412D01*
X49076982Y-10965511D01*
X49036472Y-10959933D01*
X48919045Y-10949352D01*
X48801725Y-10945539D01*
X48708764Y-10949237D01*
X48704190Y-10949750D01*
X48575075Y-10965041D01*
X48575075Y-14085286D01*
X47999760Y-14085286D01*
X47859890Y-14013179D01*
X47636578Y-13845878D01*
G37*
G36*
X50370456Y-167468942D02*
G01*
X50390627Y-167375176D01*
X50490721Y-167094642D01*
X50633993Y-166836328D01*
X50816425Y-166603525D01*
X51033996Y-166399527D01*
X51282689Y-166227625D01*
X51558483Y-166091112D01*
X51857360Y-165993281D01*
X52140991Y-165941237D01*
X52261762Y-165926899D01*
X52261762Y-166533832D01*
X52166417Y-166549036D01*
X51986952Y-166583472D01*
X51839652Y-166626044D01*
X51705907Y-166682161D01*
X51702403Y-166683869D01*
X51562563Y-166752253D01*
X52465165Y-166766139D01*
X52465165Y-169663464D01*
X52217267Y-169661443D01*
X52088024Y-169656837D01*
X51957574Y-169646301D01*
X51847863Y-169631790D01*
X51816817Y-169625781D01*
X51523781Y-169536003D01*
X51254126Y-169402873D01*
X51011547Y-169229924D01*
X50799740Y-169020690D01*
X50622399Y-168778705D01*
X50483220Y-168507502D01*
X50402129Y-168272930D01*
X50365167Y-168087204D01*
X50347399Y-167878134D01*
X50348109Y-167788165D01*
X50946161Y-167788165D01*
X50951152Y-167914645D01*
X50999186Y-168169329D01*
X51089682Y-168399097D01*
X51220905Y-168600882D01*
X51391117Y-168771615D01*
X51469770Y-168830554D01*
X51546701Y-168877576D01*
X51638720Y-168925531D01*
X51729823Y-168966957D01*
X51804002Y-168994394D01*
X51835886Y-169001214D01*
X51840516Y-168977088D01*
X51844741Y-168908118D01*
X51848419Y-168800309D01*
X51851409Y-168659666D01*
X51853571Y-168492196D01*
X51854763Y-168303903D01*
X51854955Y-168188789D01*
X51854955Y-167375176D01*
X51346447Y-167375176D01*
X51346447Y-167159059D01*
X51343756Y-167058300D01*
X51336490Y-166983608D01*
X51325860Y-166945615D01*
X51321845Y-166942943D01*
X51291171Y-166963172D01*
X51243381Y-167016398D01*
X51186527Y-167091433D01*
X51128661Y-167177087D01*
X51077831Y-167262172D01*
X51045777Y-167326614D01*
X50973466Y-167554130D01*
X50946161Y-167788165D01*
X50348109Y-167788165D01*
X50349077Y-167665465D01*
X50370456Y-167468942D01*
G37*
G36*
X37167798Y-165934955D02*
G01*
X37304661Y-165945038D01*
X37437438Y-165959644D01*
X37549892Y-165976715D01*
X37619100Y-165992130D01*
X37834726Y-166076368D01*
X38043181Y-166196704D01*
X38233183Y-166344528D01*
X38393455Y-166511230D01*
X38499469Y-166664111D01*
X38598118Y-166862822D01*
X38659296Y-167053852D01*
X38688292Y-167257041D01*
X38692448Y-167387888D01*
X38679644Y-167607210D01*
X38637704Y-167802894D01*
X38561339Y-167994783D01*
X38499497Y-168111618D01*
X38406832Y-168245747D01*
X38282935Y-168385372D01*
X38143053Y-168515361D01*
X38002435Y-168620583D01*
X37961324Y-168645667D01*
X37811924Y-168731145D01*
X37885942Y-168791019D01*
X38009375Y-168870756D01*
X38166239Y-168942736D01*
X38339147Y-169001023D01*
X38510711Y-169039682D01*
X38652803Y-169052812D01*
X38735436Y-169053254D01*
X38735436Y-169671017D01*
X38525676Y-169655951D01*
X38259710Y-169614626D01*
X37986806Y-169530727D01*
X37719397Y-169408698D01*
X37546797Y-169306046D01*
X37464164Y-169251663D01*
X37464164Y-169663464D01*
X36853954Y-169663464D01*
X36853954Y-167617625D01*
X37464053Y-167617625D01*
X37464431Y-167801096D01*
X37466365Y-167942881D01*
X37470923Y-168047562D01*
X37479172Y-168119719D01*
X37492179Y-168163934D01*
X37511012Y-168184787D01*
X37536738Y-168186860D01*
X37570425Y-168174734D01*
X37613139Y-168152990D01*
X37639260Y-168139409D01*
X37742636Y-168068485D01*
X37849239Y-167965491D01*
X37945401Y-167846315D01*
X38017452Y-167726849D01*
X38039409Y-167674218D01*
X38081122Y-167480467D01*
X38078539Y-167284552D01*
X38033532Y-167096846D01*
X37947970Y-166927720D01*
X37891589Y-166854528D01*
X37821137Y-166785523D01*
X37733926Y-166715569D01*
X37642913Y-166653419D01*
X37561054Y-166607827D01*
X37501307Y-166587546D01*
X37495946Y-166587226D01*
X37486700Y-166597929D01*
X37479303Y-166633010D01*
X37473588Y-166696694D01*
X37469387Y-166793208D01*
X37466533Y-166926778D01*
X37464857Y-167101632D01*
X37464192Y-167321994D01*
X37464164Y-167387888D01*
X37464053Y-167617625D01*
X36853954Y-167617625D01*
X36853954Y-165918177D01*
X37167798Y-165934955D01*
G37*
G36*
X43008391Y-142305706D02*
G01*
X43353919Y-141199700D01*
X43623110Y-141192506D01*
X43892301Y-141185313D01*
X43918864Y-141268783D01*
X43946522Y-141356277D01*
X43985707Y-141481088D01*
X44034997Y-141638633D01*
X44092970Y-141824326D01*
X44158202Y-142033585D01*
X44229271Y-142261824D01*
X44304754Y-142504459D01*
X44383229Y-142756907D01*
X44463272Y-143014582D01*
X44543461Y-143272902D01*
X44622374Y-143527281D01*
X44698587Y-143773136D01*
X44770678Y-144005882D01*
X44837224Y-144220936D01*
X44896803Y-144413712D01*
X44947992Y-144579627D01*
X44989368Y-144714097D01*
X45019508Y-144812538D01*
X45036990Y-144870365D01*
X45040941Y-144884301D01*
X45017127Y-144889923D01*
X44952121Y-144894564D01*
X44855582Y-144897770D01*
X44737166Y-144899089D01*
X44725095Y-144899099D01*
X44409249Y-144899099D01*
X44383310Y-144816467D01*
X44366207Y-144761787D01*
X44337675Y-144670357D01*
X44301394Y-144553982D01*
X44261047Y-144424465D01*
X44252320Y-144396437D01*
X44147268Y-144059040D01*
X43622763Y-144065907D01*
X43098257Y-144072773D01*
X42969949Y-144485609D01*
X42841642Y-144898445D01*
X42518266Y-144898772D01*
X42378861Y-144897720D01*
X42284303Y-144893835D01*
X42228635Y-144886517D01*
X42205902Y-144875169D01*
X42205170Y-144867318D01*
X42282146Y-144628596D01*
X42343659Y-144436110D01*
X42390331Y-144287856D01*
X42422786Y-144181831D01*
X42441649Y-144116031D01*
X42447548Y-144088754D01*
X42425556Y-144067833D01*
X42377628Y-144055393D01*
X42307708Y-144047348D01*
X42293448Y-143426684D01*
X42349186Y-143424425D01*
X43293098Y-143424425D01*
X43620373Y-143424425D01*
X43742679Y-143423294D01*
X43844199Y-143420200D01*
X43915446Y-143415594D01*
X43946932Y-143409926D01*
X43947648Y-143408897D01*
X43940198Y-143375765D01*
X43919749Y-143305427D01*
X43889149Y-143206505D01*
X43851248Y-143087621D01*
X43808895Y-142957397D01*
X43764940Y-142824454D01*
X43722231Y-142697416D01*
X43683619Y-142584903D01*
X43651953Y-142495539D01*
X43630081Y-142437944D01*
X43621001Y-142420474D01*
X43609925Y-142447353D01*
X43586076Y-142515320D01*
X43551938Y-142616954D01*
X43509995Y-142744836D01*
X43462730Y-142891544D01*
X43450919Y-142928580D01*
X43293098Y-143424425D01*
X42349186Y-143424425D01*
X42662864Y-143411712D01*
X43008391Y-142305706D01*
G37*
G36*
X46185085Y-96489089D02*
G01*
X44859893Y-96489089D01*
X44867785Y-96584435D01*
X44875676Y-96679780D01*
X45543093Y-96686559D01*
X46210511Y-96693337D01*
X46210511Y-97302703D01*
X44862963Y-97302703D01*
X44863155Y-97525176D01*
X44875718Y-97788093D01*
X44914831Y-98014099D01*
X44983365Y-98211283D01*
X45084192Y-98387735D01*
X45220184Y-98551546D01*
X45231632Y-98563294D01*
X45424501Y-98723356D01*
X45651200Y-98847156D01*
X45908131Y-98932856D01*
X45990054Y-98950762D01*
X46210344Y-98993494D01*
X46210427Y-99292243D01*
X46210511Y-99590991D01*
X46051602Y-99588970D01*
X45932420Y-99581671D01*
X45803788Y-99565273D01*
X45740140Y-99553366D01*
X45454262Y-99464932D01*
X45186829Y-99331598D01*
X44943190Y-99157600D01*
X44728698Y-98947174D01*
X44548701Y-98704554D01*
X44454813Y-98535836D01*
X44387991Y-98389067D01*
X44338637Y-98251650D01*
X44303724Y-98110030D01*
X44280229Y-97950654D01*
X44265127Y-97759970D01*
X44260462Y-97665015D01*
X44244981Y-97302703D01*
X44049349Y-97302703D01*
X44049349Y-96692493D01*
X44252753Y-96692493D01*
X44252753Y-95878879D01*
X46185085Y-95878879D01*
X46185085Y-96489089D01*
G37*
G36*
X45483279Y-10715694D02*
G01*
X45509819Y-10778972D01*
X45549691Y-10881790D01*
X45601323Y-11019864D01*
X45663140Y-11188911D01*
X45733571Y-11384646D01*
X45811042Y-11602787D01*
X45893981Y-11839049D01*
X45943112Y-11980223D01*
X46034764Y-12244393D01*
X46126477Y-12508743D01*
X46215935Y-12766592D01*
X46300820Y-13011258D01*
X46378814Y-13236062D01*
X46447599Y-13434323D01*
X46504856Y-13599358D01*
X46548269Y-13724488D01*
X46555662Y-13745798D01*
X46604596Y-13889791D01*
X46645892Y-14017033D01*
X46677232Y-14119896D01*
X46696301Y-14190748D01*
X46700781Y-14221961D01*
X46700432Y-14222525D01*
X46671767Y-14226786D01*
X46599400Y-14230592D01*
X46490482Y-14233767D01*
X46352162Y-14236140D01*
X46191588Y-14237535D01*
X46069546Y-14237838D01*
X45862238Y-14237136D01*
X45701215Y-14234881D01*
X45581929Y-14230845D01*
X45499831Y-14224804D01*
X45450374Y-14216531D01*
X45429201Y-14206056D01*
X45415865Y-14175139D01*
X45389069Y-14101507D01*
X45350757Y-13990908D01*
X45302872Y-13849087D01*
X45247356Y-13681794D01*
X45186155Y-13494774D01*
X45130448Y-13322523D01*
X45066032Y-13122931D01*
X45005903Y-12937892D01*
X44951972Y-12773191D01*
X44906151Y-12634612D01*
X44870349Y-12527940D01*
X44846480Y-12458959D01*
X44836963Y-12434214D01*
X44819393Y-12439970D01*
X44784043Y-12490660D01*
X44730549Y-12586919D01*
X44658544Y-12729381D01*
X44616706Y-12815595D01*
X44541470Y-12972278D01*
X44451618Y-13159484D01*
X44354508Y-13361878D01*
X44257496Y-13564126D01*
X44167941Y-13750893D01*
X44163043Y-13761112D01*
X44090514Y-13911274D01*
X44024980Y-14044795D01*
X43969679Y-14155255D01*
X43927844Y-14236240D01*
X43902712Y-14281332D01*
X43897109Y-14288515D01*
X43882157Y-14267080D01*
X43845289Y-14206127D01*
X43789332Y-14110562D01*
X43717114Y-13985291D01*
X43631463Y-13835220D01*
X43535206Y-13665257D01*
X43431171Y-13480307D01*
X43426427Y-13471845D01*
X43321338Y-13284618D01*
X43223378Y-13110588D01*
X43135486Y-12954940D01*
X43060604Y-12822861D01*
X43001672Y-12719539D01*
X42961631Y-12650160D01*
X42943423Y-12619912D01*
X42943341Y-12619797D01*
X42929974Y-12621336D01*
X42908929Y-12656113D01*
X42878856Y-12727526D01*
X42838405Y-12838968D01*
X42786229Y-12993836D01*
X42747676Y-13112294D01*
X42661487Y-13378892D01*
X42588905Y-13601015D01*
X42528263Y-13782691D01*
X42477892Y-13927947D01*
X42436124Y-14040809D01*
X42401288Y-14125306D01*
X42371716Y-14185464D01*
X42345740Y-14225311D01*
X42321690Y-14248873D01*
X42297898Y-14260178D01*
X42272695Y-14263253D01*
X42270714Y-14263264D01*
X42209216Y-14240989D01*
X42172389Y-14184921D01*
X42167868Y-14152804D01*
X42178031Y-14109843D01*
X42205460Y-14033110D01*
X42245565Y-13934743D01*
X42278893Y-13859140D01*
X42307098Y-13790570D01*
X42349367Y-13678792D01*
X42403911Y-13528916D01*
X42468940Y-13346053D01*
X42542668Y-13135310D01*
X42623303Y-12901798D01*
X42709059Y-12650627D01*
X42798145Y-12386904D01*
X42879943Y-12142295D01*
X42982140Y-11835680D01*
X43069748Y-11574142D01*
X43143959Y-11354421D01*
X43205967Y-11173255D01*
X43256966Y-11027381D01*
X43298150Y-10913539D01*
X43330712Y-10828468D01*
X43355845Y-10768905D01*
X43374743Y-10731589D01*
X43388599Y-10713258D01*
X43398608Y-10710651D01*
X43402542Y-10714224D01*
X43420834Y-10745701D01*
X43459826Y-10817493D01*
X43516939Y-10924703D01*
X43589596Y-11062435D01*
X43675219Y-11225792D01*
X43771231Y-11409878D01*
X43875055Y-11609797D01*
X43938641Y-11732631D01*
X44442165Y-12706489D01*
X44947403Y-11711453D01*
X45053447Y-11502986D01*
X45152786Y-11308436D01*
X45242986Y-11132513D01*
X45321615Y-10979931D01*
X45386239Y-10855400D01*
X45434425Y-10763631D01*
X45463740Y-10709337D01*
X45471643Y-10696239D01*
X45483279Y-10715694D01*
G37*
G36*
X49223424Y-141784485D02*
G01*
X49058158Y-141800960D01*
X48816423Y-141848721D01*
X48587550Y-141939541D01*
X48378636Y-142068238D01*
X48196781Y-142229632D01*
X48049081Y-142418542D01*
X47950552Y-142609467D01*
X47885655Y-142834850D01*
X47868467Y-143060482D01*
X47896110Y-143281432D01*
X47965706Y-143492769D01*
X48074380Y-143689564D01*
X48219251Y-143866886D01*
X48397445Y-144019805D01*
X48606081Y-144143390D01*
X48842284Y-144232710D01*
X48907848Y-144249711D01*
X49007317Y-144270210D01*
X49099522Y-144284298D01*
X49153504Y-144288513D01*
X49236136Y-144288889D01*
X49236136Y-144899099D01*
X49077227Y-144896710D01*
X48960237Y-144889727D01*
X48829790Y-144874343D01*
X48753002Y-144861340D01*
X48472924Y-144780522D01*
X48211745Y-144656337D01*
X47973527Y-144493708D01*
X47762333Y-144297561D01*
X47582225Y-144072820D01*
X47437266Y-143824408D01*
X47331519Y-143557251D01*
X47269046Y-143276274D01*
X47252953Y-143043043D01*
X47277774Y-142760712D01*
X47349918Y-142485776D01*
X47465902Y-142223424D01*
X47622248Y-141978845D01*
X47815472Y-141757227D01*
X48042096Y-141563757D01*
X48298637Y-141403625D01*
X48379868Y-141363351D01*
X48541982Y-141298286D01*
X48720848Y-141244255D01*
X48897885Y-141205885D01*
X49054511Y-141187798D01*
X49088458Y-141186987D01*
X49237750Y-141186987D01*
X49223424Y-141784485D01*
G37*
G36*
X50424775Y-141167613D02*
G01*
X51384585Y-141174275D01*
X51384585Y-141784485D01*
X50729880Y-141791270D01*
X50075175Y-141798056D01*
X50075175Y-142000601D01*
X51424337Y-142000601D01*
X51417173Y-142299350D01*
X51410010Y-142598098D01*
X50742593Y-142604877D01*
X50075175Y-142611656D01*
X50075175Y-142876949D01*
X50081118Y-143080132D01*
X50100658Y-143247223D01*
X50136360Y-143391770D01*
X50190792Y-143527321D01*
X50203157Y-143552566D01*
X50334303Y-143758325D01*
X50504299Y-143936147D01*
X50706976Y-144081745D01*
X50936168Y-144190832D01*
X51185706Y-144259120D01*
X51230070Y-144266417D01*
X51422723Y-144295071D01*
X51422723Y-144899099D01*
X51276527Y-144896127D01*
X51165843Y-144890227D01*
X51050981Y-144878629D01*
X51003203Y-144871679D01*
X50748143Y-144804503D01*
X50496532Y-144692811D01*
X50256966Y-144542679D01*
X50038040Y-144360182D01*
X49848348Y-144151395D01*
X49720996Y-143965428D01*
X49632363Y-143802109D01*
X49566830Y-143646540D01*
X49520991Y-143485545D01*
X49491438Y-143305951D01*
X49474765Y-143094583D01*
X49470950Y-142998549D01*
X49458782Y-142610811D01*
X49236136Y-142610811D01*
X49236136Y-142000601D01*
X49464965Y-142000601D01*
X49464965Y-141160950D01*
X50424775Y-141167613D01*
G37*
G36*
X34311412Y-169663464D02*
G01*
X33726627Y-169663464D01*
X33726627Y-165925926D01*
X34311412Y-165925926D01*
X34311412Y-169663464D01*
G37*
G36*
X18738338Y-165945554D02*
G01*
X18943020Y-165956553D01*
X19116782Y-165981443D01*
X19278706Y-166024858D01*
X19447873Y-166091436D01*
X19564600Y-166146299D01*
X19685922Y-166209530D01*
X19784937Y-166271701D01*
X19877954Y-166344767D01*
X19981282Y-166440682D01*
X20024198Y-166483159D01*
X20131250Y-166594301D01*
X20211763Y-166690052D01*
X20278255Y-166787587D01*
X20343242Y-166904080D01*
X20371663Y-166959920D01*
X20467753Y-167171362D01*
X20531724Y-167363822D01*
X20567289Y-167554398D01*
X20578164Y-167760186D01*
X20574597Y-167893769D01*
X20535234Y-168200690D01*
X20449538Y-168489124D01*
X20319740Y-168755672D01*
X20148069Y-168996933D01*
X19936752Y-169209509D01*
X19688020Y-169390000D01*
X19539209Y-169472788D01*
X19389716Y-169542163D01*
X19250886Y-169591552D01*
X19106877Y-169624735D01*
X18941846Y-169645492D01*
X18769954Y-169656335D01*
X18445614Y-169670784D01*
X18452136Y-167804712D01*
X18452167Y-167795823D01*
X19056156Y-167795823D01*
X19056362Y-168080879D01*
X19057052Y-168318986D01*
X19058341Y-168514047D01*
X19060339Y-168669962D01*
X19063160Y-168790633D01*
X19066915Y-168879961D01*
X19071717Y-168941848D01*
X19077678Y-168980195D01*
X19084911Y-168998903D01*
X19090878Y-169002403D01*
X19129094Y-168991577D01*
X19198618Y-168962935D01*
X19285699Y-168922229D01*
X19302800Y-168913753D01*
X19504938Y-168785101D01*
X19675630Y-168620026D01*
X19811103Y-168424772D01*
X19907580Y-168205581D01*
X19961286Y-167968696D01*
X19971472Y-167808135D01*
X19948363Y-167551407D01*
X19880855Y-167314864D01*
X19771678Y-167102460D01*
X19623559Y-166918148D01*
X19439227Y-166765880D01*
X19221411Y-166649611D01*
X19153974Y-166623755D01*
X19056156Y-166589243D01*
X19056156Y-167795823D01*
X18452167Y-167795823D01*
X18456385Y-166589243D01*
X18458659Y-165938639D01*
X18738338Y-165945554D01*
G37*
G36*
X36627184Y-121116791D02*
G01*
X36647559Y-120913003D01*
X36679577Y-120719828D01*
X36725180Y-120523965D01*
X36786308Y-120312111D01*
X36817055Y-120215237D01*
X36892367Y-120010447D01*
X36991468Y-119781762D01*
X37106503Y-119544820D01*
X37229618Y-119315262D01*
X37352958Y-119108728D01*
X37432113Y-118990591D01*
X37540343Y-118850519D01*
X37677346Y-118691713D01*
X37833255Y-118524136D01*
X37998199Y-118357748D01*
X38162308Y-118202510D01*
X38315714Y-118068385D01*
X38446456Y-117966812D01*
X38864644Y-117699565D01*
X39295816Y-117481369D01*
X39739549Y-117312345D01*
X40195420Y-117192614D01*
X40663008Y-117122297D01*
X41141890Y-117101518D01*
X41417818Y-117111758D01*
X41897015Y-117167302D01*
X42356630Y-117269768D01*
X42796505Y-117419084D01*
X43216482Y-117615178D01*
X43616402Y-117857978D01*
X43996108Y-118147412D01*
X44303699Y-118430895D01*
X44528741Y-118667953D01*
X44718977Y-118896525D01*
X44884943Y-119131144D01*
X45037178Y-119386342D01*
X45142753Y-119588088D01*
X45314117Y-119964724D01*
X45444214Y-120329806D01*
X45536354Y-120696249D01*
X45593848Y-121076969D01*
X45618808Y-121445518D01*
X45619325Y-121834098D01*
X45592105Y-122193780D01*
X45535186Y-122539499D01*
X45446606Y-122886189D01*
X45417074Y-122981690D01*
X45248118Y-123428016D01*
X45035695Y-123849922D01*
X44782267Y-124244813D01*
X44490294Y-124610097D01*
X44162239Y-124943179D01*
X43800562Y-125241466D01*
X43407725Y-125502364D01*
X42986190Y-125723279D01*
X42702180Y-125842599D01*
X42283364Y-125976759D01*
X41843109Y-126069432D01*
X41390912Y-126119490D01*
X40936269Y-126125804D01*
X40562316Y-126096828D01*
X40098413Y-126015656D01*
X39650939Y-125887896D01*
X39222702Y-125715949D01*
X38816510Y-125502221D01*
X38435172Y-125249114D01*
X38081496Y-124959032D01*
X37758289Y-124634379D01*
X37468361Y-124277558D01*
X37214520Y-123890972D01*
X36999573Y-123477026D01*
X36826328Y-123038123D01*
X36767144Y-122848537D01*
X36716523Y-122663524D01*
X36677999Y-122496585D01*
X36650054Y-122335476D01*
X36631173Y-122167954D01*
X36619836Y-121981777D01*
X36614528Y-121764699D01*
X36613599Y-121609410D01*
X36615563Y-121430696D01*
X36627388Y-121430696D01*
X36632261Y-121892685D01*
X36662183Y-122198142D01*
X36748244Y-122660297D01*
X36879158Y-123102963D01*
X37052198Y-123523957D01*
X37264638Y-123921098D01*
X37513749Y-124292204D01*
X37796806Y-124635095D01*
X38111079Y-124947589D01*
X38453844Y-125227505D01*
X38822371Y-125472660D01*
X39213934Y-125680874D01*
X39625806Y-125849965D01*
X40055259Y-125977752D01*
X40499567Y-126062053D01*
X40956001Y-126100688D01*
X41421836Y-126091474D01*
X41519520Y-126083357D01*
X41985802Y-126015048D01*
X42434561Y-125901074D01*
X42863428Y-125744025D01*
X43270035Y-125546489D01*
X43652015Y-125311055D01*
X44006998Y-125040310D01*
X44332618Y-124736844D01*
X44626507Y-124403244D01*
X44886295Y-124042101D01*
X45109616Y-123656001D01*
X45294101Y-123247533D01*
X45437383Y-122819287D01*
X45537093Y-122373849D01*
X45590863Y-121913810D01*
X45600092Y-121622790D01*
X45585353Y-121234331D01*
X45539680Y-120867384D01*
X45459983Y-120502907D01*
X45368989Y-120198299D01*
X45196961Y-119756790D01*
X44982576Y-119341540D01*
X44728227Y-118954655D01*
X44436307Y-118598245D01*
X44109209Y-118274418D01*
X43749327Y-117985282D01*
X43359055Y-117732945D01*
X42940784Y-117519516D01*
X42496909Y-117347103D01*
X42029824Y-117217815D01*
X41971230Y-117205066D01*
X41873782Y-117185700D01*
X41783098Y-117171133D01*
X41689406Y-117160707D01*
X41582933Y-117153764D01*
X41453908Y-117149646D01*
X41292560Y-117147695D01*
X41112713Y-117147248D01*
X40861914Y-117149415D01*
X40649737Y-117157089D01*
X40464091Y-117172032D01*
X40292887Y-117196002D01*
X40124033Y-117230761D01*
X39945438Y-117278068D01*
X39745013Y-117339685D01*
X39707549Y-117351823D01*
X39272942Y-117519385D01*
X38864111Y-117728743D01*
X38483029Y-117976760D01*
X38131668Y-118260296D01*
X37812000Y-118576213D01*
X37525997Y-118921374D01*
X37275632Y-119292640D01*
X37062876Y-119686872D01*
X36889701Y-120100932D01*
X36758080Y-120531681D01*
X36669985Y-120975982D01*
X36627388Y-121430696D01*
X36615563Y-121430696D01*
X36616511Y-121344493D01*
X36627184Y-121116791D01*
G37*
G36*
X28248600Y-165951352D02*
G01*
X28817386Y-167775626D01*
X28909018Y-168069440D01*
X28996396Y-168349453D01*
X29078317Y-168611827D01*
X29153582Y-168852725D01*
X29220989Y-169068305D01*
X29279338Y-169254732D01*
X29327428Y-169408165D01*
X29364057Y-169524766D01*
X29388026Y-169600696D01*
X29398133Y-169632117D01*
X29398258Y-169632464D01*
X29393003Y-169646122D01*
X29360860Y-169654857D01*
X29295409Y-169659193D01*
X29190226Y-169659655D01*
X29086605Y-169657890D01*
X28762865Y-169650751D01*
X28634177Y-169237588D01*
X28505490Y-168824425D01*
X27457576Y-168824425D01*
X27200642Y-169650751D01*
X26878650Y-169657867D01*
X26757428Y-169659678D01*
X26657060Y-169659526D01*
X26587105Y-169657546D01*
X26557121Y-169653875D01*
X26556657Y-169653254D01*
X26564098Y-169626326D01*
X26584672Y-169559404D01*
X26615753Y-169460841D01*
X26654713Y-169338991D01*
X26683784Y-169248894D01*
X26726566Y-169115928D01*
X26763210Y-169000446D01*
X26791086Y-168910871D01*
X26807561Y-168855623D01*
X26810911Y-168842033D01*
X26788956Y-168829176D01*
X26740991Y-168819757D01*
X26671071Y-168811712D01*
X26656811Y-168191048D01*
X26838555Y-168183562D01*
X27020298Y-168176076D01*
X27026241Y-168157007D01*
X27662087Y-168157007D01*
X27669638Y-168170629D01*
X27706808Y-168180010D01*
X27779514Y-168185741D01*
X27893674Y-168188411D01*
X27981279Y-168188789D01*
X28104038Y-168188330D01*
X28206006Y-168187072D01*
X28277743Y-168185199D01*
X28309812Y-168182892D01*
X28310643Y-168182433D01*
X28302313Y-168146970D01*
X28280904Y-168075024D01*
X28249290Y-167975091D01*
X28210348Y-167855670D01*
X28166952Y-167725257D01*
X28121978Y-167592351D01*
X28078301Y-167465448D01*
X28038796Y-167353046D01*
X28006338Y-167263643D01*
X27983802Y-167205736D01*
X27974094Y-167187766D01*
X27962622Y-167217991D01*
X27938625Y-167288786D01*
X27904715Y-167392177D01*
X27863509Y-167520191D01*
X27817621Y-167664853D01*
X27816766Y-167667568D01*
X27770865Y-167813222D01*
X27729864Y-167943166D01*
X27696348Y-168049219D01*
X27672903Y-168123198D01*
X27662115Y-168156920D01*
X27662087Y-168157007D01*
X27026241Y-168157007D01*
X27713514Y-165951614D01*
X28248600Y-165951352D01*
G37*
G36*
X54499199Y-169663464D02*
G01*
X53888989Y-169663464D01*
X53888989Y-166917837D01*
X53780931Y-166838188D01*
X53690316Y-166779524D01*
X53574770Y-166715732D01*
X53453820Y-166656689D01*
X53346992Y-166612275D01*
X53310561Y-166600221D01*
X53253353Y-166583561D01*
X53253353Y-169663464D01*
X52642813Y-169663464D01*
X52649335Y-167801051D01*
X52655856Y-165938639D01*
X52935536Y-165945922D01*
X53174926Y-165960859D01*
X53384088Y-165994539D01*
X53581357Y-166050626D01*
X53712953Y-166101281D01*
X53886448Y-166174176D01*
X53894075Y-166056408D01*
X53901702Y-165938639D01*
X54200451Y-165931476D01*
X54499199Y-165924313D01*
X54499199Y-169663464D01*
G37*
G36*
X22730130Y-166548849D02*
G01*
X22564865Y-166565528D01*
X22322117Y-166613951D01*
X22095127Y-166705610D01*
X21889453Y-166835414D01*
X21710652Y-166998272D01*
X21564284Y-167189092D01*
X21455904Y-167402785D01*
X21391072Y-167634258D01*
X21389765Y-167641983D01*
X21377882Y-167862852D01*
X21412751Y-168079931D01*
X21490298Y-168287863D01*
X21606447Y-168481289D01*
X21757125Y-168654851D01*
X21938257Y-168803190D01*
X22145769Y-168920949D01*
X22375585Y-169002769D01*
X22435215Y-169016804D01*
X22533137Y-169035433D01*
X22620801Y-169048472D01*
X22672923Y-169052812D01*
X22742843Y-169053254D01*
X22742843Y-169663464D01*
X22583934Y-169661391D01*
X22470944Y-169654466D01*
X22341048Y-169638647D01*
X22247047Y-169622191D01*
X22015694Y-169553172D01*
X21780268Y-169445510D01*
X21555420Y-169307836D01*
X21355800Y-169148785D01*
X21236774Y-169026868D01*
X21051912Y-168776714D01*
X20913282Y-168511506D01*
X20820833Y-168235799D01*
X20774518Y-167954146D01*
X20774288Y-167671101D01*
X20820095Y-167391219D01*
X20911889Y-167119054D01*
X21049623Y-166859159D01*
X21233249Y-166616089D01*
X21262814Y-166583446D01*
X21472563Y-166389425D01*
X21711810Y-166224716D01*
X21970802Y-166094022D01*
X22239787Y-166002044D01*
X22509010Y-165953484D01*
X22580099Y-165948444D01*
X22730130Y-165941494D01*
X22730130Y-166548849D01*
G37*
G04 #@! TD*
M02*
